<?xml version="1.0" encoding="UTF-8"?>
<svg version="1.1" xmlns="http://www.w3.org/2000/svg" width="1875" height="474">
<path d="M0 0 C618.75 0 1237.5 0 1875 0 C1875 156.42 1875 312.84 1875 474 C1256.25 474 637.5 474 0 474 C0 317.58 0 161.16 0 0 Z " fill="#FF0001" transform="translate(0,0)"/>
<path d="M0 0 C158.73 0 317.46 0 481 0 C481 156.42 481 312.84 481 474 C322.27 474 163.54 474 0 474 C0 317.58 0 161.16 0 0 Z " fill="#FFCC01" transform="translate(1394,0)"/>
<path d="M0 0 C1.4589423 -0.00515594 2.91787834 -0.01244969 4.37680054 -0.02168274 C8.29012442 -0.03998932 12.20275542 -0.02739317 16.11604929 -0.00759244 C20.23922749 0.00896302 24.36236756 -0.00004176 28.48556519 -0.00511169 C35.403248 -0.00961298 42.32065868 0.00611685 49.23828125 0.03417969 C57.20407329 0.06624812 65.16937562 0.06619957 73.13520253 0.04896492 C80.84261646 0.0330327 88.54985307 0.03987459 96.25725937 0.05690193 C99.51771723 0.0637241 102.77803089 0.06279036 106.03848648 0.05535698 C109.88509546 0.04762447 113.73115532 0.06004365 117.57767105 0.08720589 C118.97835665 0.09401762 120.37909427 0.09426652 121.77977753 0.08699036 C139.17142417 0.00714007 152.72657014 5.27996822 165.40966797 17.14672852 C174.30803068 26.65825571 179.829676 38.79820986 179.88105774 51.83947754 C179.8917907 53.71479156 179.8917907 53.71479156 179.90274048 55.62799072 C179.90558043 57.0059812 179.9082922 58.38397194 179.91088867 59.76196289 C179.91715832 61.21942302 179.92380556 62.67688156 179.93080139 64.13433838 C179.95179217 68.91449888 179.96220209 73.6946595 179.97216797 78.47485352 C179.97621799 80.1254325 179.98033499 81.77601132 179.98451805 83.42658997 C180.0035622 91.18628808 180.01779242 98.94597675 180.02613002 106.70569372 C180.03588678 115.63688574 180.06216857 124.5678289 180.10263091 133.49893332 C180.13289234 140.41807806 180.14760853 147.3371519 180.15091103 154.25636148 C180.15325093 158.38103708 180.16207133 162.50544659 180.18737221 166.63005066 C180.21083301 170.51748016 180.21481486 174.40447181 180.20461082 178.29195404 C180.20411962 179.70878821 180.21031552 181.12564526 180.22416687 182.5424118 C180.38510657 199.99879705 175.13857748 213.5837199 163.21435547 226.30688477 C156.13408407 232.94115482 147.95346612 236.85178136 138.73388672 239.63110352 C137.85725734 239.89632026 137.85725734 239.89632026 136.96291828 240.16689491 C134.15778086 240.75108086 131.52573628 240.77025452 128.65922546 240.78500366 C127.4132811 240.79360413 126.16733673 240.80220459 124.88363647 240.81106567 C123.50518841 240.8155007 122.12673989 240.81979907 120.74829102 240.82397461 C119.29422309 240.83188006 117.84015709 240.84014928 116.38609314 240.84875488 C111.61011621 240.87494223 106.83413071 240.89028765 102.05810547 240.90454102 C100.40912178 240.90990363 98.76013815 240.91528115 97.11115456 240.92067337 C90.24405393 240.94230476 83.3769556 240.9610354 76.50982952 240.97229576 C66.69873782 240.988493 56.88804478 241.02156437 47.07710332 241.07869661 C40.1638944 241.11756641 33.2507913 241.13694897 26.33747607 241.14221632 C22.21712409 241.14584899 18.0971976 241.15764388 13.97696495 241.19031906 C10.0902975 241.22069827 6.20430623 241.22660723 2.31754494 241.2149353 C0.90315334 241.21471698 -0.51127239 241.22281844 -1.92555237 241.24058914 C-16.57238974 241.41437077 -28.75844499 237.94580106 -40.26611328 228.63110352 C-41.31798828 227.86797852 -42.36986328 227.10485352 -43.45361328 226.31860352 C-54.05742676 216.18607064 -60.21352605 202.37890359 -60.65379333 187.77713013 C-60.67447517 185.18448847 -60.67956303 182.59507495 -60.67016602 180.00268555 C-60.67588158 178.56404087 -60.68285039 177.12540073 -60.69096375 175.68676758 C-60.70878046 171.81057025 -60.70774852 167.93460072 -60.70202136 164.05837488 C-60.69891243 160.80822268 -60.70504085 157.55811316 -60.71106011 154.30796707 C-60.72506632 146.63292764 -60.723577 138.95799962 -60.7121582 131.28295898 C-60.7006837 123.39679884 -60.71475023 115.51097906 -60.74155468 107.62486374 C-60.76379309 100.82447088 -60.77033073 94.02418422 -60.76447827 87.22375762 C-60.76112652 83.17521307 -60.76340374 79.12688651 -60.78072929 75.07837296 C-60.79632681 71.26797243 -60.7921032 67.45807152 -60.77342415 63.64768982 C-60.76804945 61.6046671 -60.78215469 59.56162123 -60.79711914 57.51864624 C-60.67833152 42.45275036 -55.88774808 27.76031281 -45.41845703 16.60375977 C-32.07893091 4.37787829 -17.8551944 -0.16363479 0 0 Z " fill="#FFCC01" transform="translate(1579.26611328125,116.368896484375)"/>
<path d="M0 0 C0.495 11.385 0.495 11.385 1 23 C2.98 21.35 4.96 19.7 7 18 C23.17649287 5.0264103 42.2851108 -1.86475467 63.15625 0.3671875 C76.26966918 2.21212516 88.57174307 7.42596637 97 18 C99 21 99 21 100 23 C103.74170168 20.86574417 107.01636716 18.44066945 110.375 15.75 C126.6020692 3.50992569 146.57072096 -2.00499317 166.8125 0.6875 C179.88480786 3.12744869 191.45764702 8.54451588 200 19 C209.0931933 32.35562766 207.14794735 52.02205432 207.01403427 67.47066498 C206.99167748 70.17097684 206.97781872 72.8712153 206.96633911 75.57159424 C206.93304584 83.23907339 206.89101837 90.90642926 206.82861328 98.57373047 C206.79083028 103.28955018 206.76790743 108.00525037 206.75430679 112.72119904 C206.74629896 114.50567232 206.7327567 116.29013031 206.71337509 118.0745163 C206.39344344 130.87342611 206.39344344 130.87342611 210 143 C214.45824794 145.54757025 219.93689802 145.539718 225 146 C225 149.96 225 153.92 225 158 C196.62 158 168.24 158 139 158 C139 154.04 139 150.08 139 146 C143.4921875 145.26757812 143.4921875 145.26757812 147.984375 144.53515625 C150.36347593 144.11295829 152.66915211 143.62797116 155 143 C156.16684449 138.8048666 156.18996673 134.71072583 156.23706055 130.3828125 C156.25672882 129.07948723 156.25672882 129.07948723 156.27679443 127.74983215 C156.31859324 124.87493279 156.35312029 122.00000619 156.38671875 119.125 C156.41239218 117.11922061 156.43817609 115.11344263 156.46406555 113.10766602 C156.51704769 108.89782031 156.56595586 104.68794834 156.61254883 100.47802734 C156.67266986 95.10954294 156.74695357 89.74135872 156.82492352 84.37310791 C156.88284265 80.2259258 156.93098842 76.07867045 156.976511 71.93133545 C156.99976515 69.95395533 157.02647157 67.97661243 157.05682945 65.99932861 C158.28338497 46.78897373 158.28338497 46.78897373 151 30 C144.47413272 25.49404402 136.73779365 25.58598982 129.125 26.5625 C122.44181297 27.83712845 116.83354715 30.57052915 111 34 C110.32324219 34.36867187 109.64648438 34.73734375 108.94921875 35.1171875 C106.54615125 36.68864453 105.16046985 38.24363207 104.56008911 41.07350159 C103.8803679 49.8070158 103.85451747 58.52388942 103.8671875 67.27734375 C103.86651205 68.9368135 103.86554003 70.59628315 103.86428833 72.25575256 C103.86282227 75.71763052 103.8649303 79.17948251 103.86962891 82.64135742 C103.87532102 87.04654227 103.87204347 91.4516661 103.86605644 95.85684872 C103.86241738 99.27922513 103.86360475 102.70158744 103.86618423 106.12396431 C103.86684451 107.74683197 103.86605707 109.36970097 103.86370468 110.99256706 C102.83225373 127.78658684 102.83225373 127.78658684 108 143 C112.2747796 145.51457623 117.15207846 145.56585777 122 146 C122 149.96 122 153.92 122 158 C93.62 158 65.24 158 36 158 C36 154.04 36 150.08 36 146 C36.90363281 145.89042969 37.80726563 145.78085937 38.73828125 145.66796875 C39.91777344 145.50941406 41.09726562 145.35085938 42.3125 145.1875 C43.48425781 145.03667969 44.65601563 144.88585937 45.86328125 144.73046875 C49.04368306 143.98982723 50.18852826 143.65229139 52 141 C53.73649878 135.49084237 53.39052035 129.53100028 53.5625 123.8125 C53.59376984 122.80147217 53.59376984 122.80147217 53.62567139 121.77001953 C54.04828785 107.68226082 54.10894923 93.59323794 54.125 79.5 C54.12888229 77.92903061 54.12888229 77.92903061 54.13284302 76.32632446 C54.15191788 66.53881296 54.15604098 56.74685304 53.6796875 46.96875 C53.62280762 45.77701172 53.56592773 44.58527344 53.50732422 43.35742188 C52.91199091 39.41756449 51.68415439 36.60310575 50 33 C49.67 32.01 49.34 31.02 49 30 C46.80067065 28.83486387 46.80067065 28.83486387 44 28 C42.906875 27.62875 41.81375 27.2575 40.6875 26.875 C29.1286724 24.13222735 18.49406552 27.75554379 8.375 33.40234375 C4.75043729 35.84057754 2.39640042 37.81079873 1 42 C0.89808797 44.93001456 0.85317004 47.83633217 0.85473633 50.76660156 C0.85137772 51.66287766 0.8480191 52.55915375 0.84455872 53.48258972 C0.83504362 56.45194884 0.83310514 59.42125157 0.83203125 62.390625 C0.8288184 64.45465112 0.8254543 66.518677 0.82194519 68.58270264 C0.81595206 72.91370166 0.81410541 77.24468072 0.81469727 81.57568359 C0.81479875 87.11832004 0.80116176 92.66082797 0.78392506 98.20343399 C0.77278995 102.46887801 0.77077855 106.73429116 0.77130699 110.99974823 C0.77012857 113.04262484 0.76571454 115.08550228 0.75797462 117.12836456 C0.74814701 119.99094039 0.75106407 122.85323977 0.75708008 125.71582031 C0.75146057 126.55555893 0.74584106 127.39529755 0.74005127 128.26048279 C0.7663859 133.20661915 1.21378824 137.3608573 3 142 C6.41211416 144.27474277 8.6568529 144.56629644 12.6875 145.125 C14.45673828 145.37636719 14.45673828 145.37636719 16.26171875 145.6328125 C17.16535156 145.75398437 18.06898438 145.87515625 19 146 C19 149.96 19 153.92 19 158 C-9.38 158 -37.76 158 -67 158 C-67 154.04 -67 150.08 -67 146 C-62.5078125 145.26757812 -62.5078125 145.26757812 -58.015625 144.53515625 C-55.63376932 144.11246943 -53.33898839 143.60239984 -51 143 C-49.36045749 136.52589728 -48.69860536 130.63342716 -48.69360352 123.96972656 C-48.68528 123.0108403 -48.67695648 122.05195404 -48.66838074 121.06401062 C-48.64445908 117.92283983 -48.63553426 114.78187694 -48.62890625 111.640625 C-48.61993233 109.44586122 -48.61081035 107.25109803 -48.60154724 105.05633545 C-48.58510756 100.47032182 -48.57736524 95.88438082 -48.57446289 91.29833984 C-48.56905818 85.4213817 -48.53127033 79.54510403 -48.48571873 73.66833878 C-48.45600188 69.14218635 -48.44874063 64.61619971 -48.44773674 60.08995819 C-48.44353037 57.92259323 -48.43107946 55.75522795 -48.41021919 53.58795929 C-48.38339315 50.56235563 -48.38810234 47.53835675 -48.40063477 44.51269531 C-48.38580048 43.61908798 -48.37096619 42.72548065 -48.35568237 41.80479431 C-48.40772522 37.39736376 -48.54799995 35.5778208 -51.34507751 32.00213623 C-54.22668059 29.82905511 -56.8795346 28.52845239 -60.25 27.25 C-65.94444444 25.05555556 -65.94444444 25.05555556 -67 24 C-67.14115161 21.32941149 -67.04247107 18.67567762 -67 16 C-66.26813477 15.86537354 -65.53626953 15.73074707 -64.78222656 15.59204102 C-46.82082066 12.22951173 -29.83913613 7.80130425 -12.56420898 1.84448242 C-7.8952328 0.3068276 -5.17463956 0 0 0 Z " fill="#FFFFFF" transform="translate(640,206)"/>
<path d="M0 0 C3.68902892 1.59274097 6.3962663 2.68673641 10.4453125 2.76171875 C15.79417356 0.59670356 17.74420094 -4.2996414 20.0703125 -9.30078125 C22.3803125 -9.30078125 24.6903125 -9.30078125 27.0703125 -9.30078125 C27.0703125 18.08921875 27.0703125 45.47921875 27.0703125 73.69921875 C20.0703125 73.69921875 20.0703125 73.69921875 17.0703125 72.69921875 C15.81325605 70.56979541 14.71196343 68.47919443 13.6328125 66.26171875 C6.96331754 53.18574668 -1.37957257 40.84430133 -10.9296875 29.69921875 C-11.56519531 28.90773437 -12.20070313 28.11625 -12.85546875 27.30078125 C-26.82383911 10.62291532 -47.03241429 -1.49366496 -68.7890625 -3.57421875 C-82.9689694 -4.10698982 -95.41768045 0.76930345 -106.1171875 9.88671875 C-125.05744978 27.86798041 -132.13823902 53.68039807 -135.9296875 78.69921875 C-136.10757813 79.86880127 -136.10757813 79.86880127 -136.2890625 81.06201172 C-142.07698439 121.44827026 -141.98682048 178.17996584 -116.67480469 212.39550781 C-106.87025338 224.73308351 -94.95045705 231.80669803 -79.33203125 234.265625 C-65.40309379 235.65705408 -52.44413432 232.94785886 -39.9296875 226.69921875 C-38.97964844 226.23 -38.02960938 225.76078125 -37.05078125 225.27734375 C-16.4685879 214.20516517 -0.10848848 194.80122763 11.52734375 174.84765625 C12.12579102 173.8419458 12.72423828 172.83623535 13.34082031 171.80004883 C14.51711718 169.80563268 15.66233008 167.79248712 16.77246094 165.76049805 C17.31547852 164.84437744 17.85849609 163.92825684 18.41796875 162.984375 C18.88211182 162.1581665 19.34625488 161.33195801 19.82446289 160.48071289 C22.0703125 158.69921875 22.0703125 158.69921875 32.0703125 158.69921875 C32.0703125 187.07921875 32.0703125 215.45921875 32.0703125 244.69921875 C28.7703125 244.69921875 25.4703125 244.69921875 22.0703125 244.69921875 C21.68359375 243.85617187 21.296875 243.013125 20.8984375 242.14453125 C20.11726563 240.50097656 20.11726563 240.50097656 19.3203125 238.82421875 C18.80984375 237.73367188 18.299375 236.643125 17.7734375 235.51953125 C15.93163045 232.46956636 15.41139294 231.69307784 12.0703125 230.69921875 C9.54194148 231.24302143 7.32330779 231.87930627 4.90234375 232.734375 C3.4484617 233.2171306 1.99452047 233.69970796 0.54052734 234.18212891 C-0.21995911 234.44052551 -0.98044556 234.69892212 -1.76397705 234.96514893 C-16.95685729 240.1079911 -32.03719572 244.29322178 -47.9296875 246.69921875 C-48.63778564 246.80685547 -49.34588379 246.91449219 -50.07543945 247.02539062 C-57.30427584 247.97321434 -64.58747745 247.94278849 -71.8671875 247.94921875 C-72.89939423 247.95023087 -72.89939423 247.95023087 -73.95245361 247.95126343 C-84.8640267 247.93430276 -95.30641342 247.32569481 -105.9296875 244.69921875 C-106.61562988 244.53824707 -107.30157227 244.37727539 -108.00830078 244.21142578 C-129.85139971 238.95636084 -148.74936162 228.19214516 -164.9296875 212.69921875 C-165.73921875 211.96445312 -166.54875 211.2296875 -167.3828125 210.47265625 C-189.22328465 189.93711797 -202.82121471 157.46551344 -204.0559082 127.65136719 C-204.70679974 98.79724216 -201.50556077 72.08469367 -186.9296875 46.69921875 C-186.58566895 46.09916016 -186.24165039 45.49910156 -185.88720703 44.88085938 C-169.30831234 16.53056299 -142.97059996 -3.75584769 -111.1796875 -12.17578125 C-108.1063027 -12.93430441 -105.02388436 -13.63278909 -101.9296875 -14.30078125 C-100.83269531 -14.54699219 -99.73570312 -14.79320313 -98.60546875 -15.046875 C-65.08431828 -21.14545319 -30.6358998 -13.60233951 0 0 Z " fill="#FFFFFF" transform="translate(331.9296875,121.30078125)"/>
<path d="M0 0 C1.23402862 4.77092956 1.11265112 9.42469446 1.0625 14.3125 C1.05798828 15.14845703 1.05347656 15.98441406 1.04882812 16.84570312 C1.03710548 18.89716649 1.01917203 20.94859273 1 23 C1.82242187 22.34773438 2.64484375 21.69546875 3.4921875 21.0234375 C21.78611628 6.6346755 40.69879473 -1.88073347 64.5859375 0.46484375 C77.65673013 2.51369797 88.74446046 7.36924758 97.30859375 17.62890625 C103.14732055 25.81391126 104.1464157 33.81616093 104.15771484 43.60449219 C104.16279556 44.56612274 104.16787628 45.5277533 104.17311096 46.51852417 C104.18379583 48.60339198 104.19242336 50.68827113 104.19923019 52.77315521 C104.211048 56.07777331 104.23050886 59.38226241 104.25234985 62.68682861 C104.31386561 72.08153975 104.36796741 81.4762372 104.40136719 90.87109375 C104.42235958 96.62171866 104.45769938 102.37210723 104.50212479 108.12259674 C104.51624805 110.30892396 104.52499889 112.49529299 104.52817917 114.68166351 C104.53311024 117.74733563 104.55632521 120.812385 104.58349609 123.87792969 C104.58048996 124.77279083 104.57748383 125.66765198 104.5743866 126.58963013 C104.64916246 132.29615186 105.23761818 137.89962356 108 143 C111.18521102 144.69652794 111.18521102 144.69652794 115 145 C115.73734375 145.10570312 116.4746875 145.21140625 117.234375 145.3203125 C119.15131308 145.58542096 121.07544974 145.79741576 123 146 C123 149.96 123 153.92 123 158 C94.29 158 65.58 158 36 158 C36 154.04 36 150.08 36 146 C40.4921875 145.26757812 40.4921875 145.26757812 44.984375 144.53515625 C47.36347593 144.11295829 49.66915211 143.62797116 52 143 C53.15468373 138.2461683 53.34199714 133.51920459 53.5546875 128.65234375 C53.59673309 127.70044662 53.63877869 126.7485495 53.68209839 125.76780701 C54.17060417 113.40824307 54.15114499 101.04214744 54.13037109 88.67504883 C54.12463522 85.23116972 54.12799675 81.78736795 54.13394356 78.34349155 C54.13847376 74.98029064 54.13528239 71.61710934 54.1328125 68.25390625 C54.13584885 66.43929649 54.13584885 66.43929649 54.13894653 64.58802795 C55.07307805 46.81445756 55.07307805 46.81445756 49 31 C42.46275386 25.72051381 35.54365887 25.71848918 27.55078125 26.43359375 C18.64479558 27.85424053 9.40119385 31.43079581 3 38 C1.34309642 40.82335544 0.75120824 42.8678065 0.7638092 46.12986755 C0.76224823 46.94431335 0.76068726 47.75875916 0.75907898 48.59788513 C0.76776505 49.48267044 0.77645111 50.36745575 0.78540039 51.27905273 C0.78683044 52.21770172 0.7882605 53.15635071 0.78973389 54.1234436 C0.7979204 57.22698742 0.82171247 60.33015059 0.84765625 63.43359375 C0.8611367 65.59066152 0.87443477 67.74773044 0.88755798 69.90480042 C0.91804082 74.42661873 0.9574162 78.9482678 1.00170898 83.4699707 C1.05681639 89.26499263 1.07968365 95.0596575 1.0945673 100.85490322 C1.11131021 105.3100409 1.15033292 109.76478193 1.19555473 114.21971321 C1.21357174 116.35629084 1.22344083 118.49295324 1.22502327 120.62960625 C1.22955553 123.61767703 1.2653238 126.60383017 1.30883789 129.59155273 C1.30061256 130.91569435 1.30061256 130.91569435 1.29222107 132.2665863 C1.38970113 136.64924666 1.58203515 138.46074527 4.34861755 142.03016663 C7.43025671 144.3196574 9.52369277 144.85451231 13.3125 145.3125 C16.1278125 145.6528125 16.1278125 145.6528125 19 146 C19 149.96 19 153.92 19 158 C-9.05 158 -37.1 158 -66 158 C-66 154.04 -66 150.08 -66 146 C-63.00520833 145.609375 -60.01041667 145.21875 -57.015625 144.828125 C-53.52687609 143.87007478 -52.19068575 142.84584411 -50 140 C-49.10135845 137.18412566 -48.86976268 134.61891824 -48.85282898 131.67358398 C-48.84567368 130.81562225 -48.83851837 129.95766052 -48.83114624 129.07369995 C-48.82845734 128.1405899 -48.82576843 127.20747986 -48.82299805 126.24609375 C-48.81642685 125.25707062 -48.80985565 124.26804749 -48.80308533 123.24905396 C-48.78338436 119.97853519 -48.77169977 116.70806218 -48.76171875 113.4375 C-48.75764322 112.32083954 -48.7535677 111.20417908 -48.74936867 110.05368042 C-48.72852638 104.14874456 -48.71421398 98.24383185 -48.70483398 92.33886719 C-48.69374463 86.23198891 -48.65931021 80.12547251 -48.61966228 74.01872253 C-48.59356708 69.32791448 -48.5851487 64.63719384 -48.58155251 59.94631958 C-48.57667192 57.69440249 -48.56501639 55.44248968 -48.54651451 53.19064331 C-48.52226374 50.04476809 -48.52306195 46.89984559 -48.5300293 43.75390625 C-48.51081421 42.35424118 -48.51081421 42.35424118 -48.49121094 40.92630005 C-48.48927161 35.8568762 -48.48927161 35.8568762 -50.82722473 31.4831543 C-53.66787701 29.54410165 -56.51645345 28.41407676 -59.75 27.25 C-60.92046875 26.82203125 -62.0909375 26.3940625 -63.296875 25.953125 C-64.18890625 25.63859375 -65.0809375 25.3240625 -66 25 C-66 22.03 -66 19.06 -66 16 C-65.35788574 15.88519287 -64.71577148 15.77038574 -64.05419922 15.65209961 C-47.25668253 12.59895482 -31.29660932 8.35321837 -15.2109375 2.6640625 C-9.89399063 0.80379077 -5.65145685 -0.5137688 0 0 Z " fill="#FFFFFF" transform="translate(1170,206)"/>
<path d="M0 0 C1.20333984 -0.020625 2.40667969 -0.04125 3.64648438 -0.0625 C14.63438037 -0.10998956 27.39910106 1.09225164 35.9921875 8.74609375 C47.74965138 21.41022773 46.60879951 38.96344899 46.64802551 55.10128784 C46.65638906 58.4303501 46.67695648 61.75914774 46.70056152 65.08813477 C46.75665801 73.34371308 46.7922644 81.59935511 46.82818604 89.8550415 C46.85941286 96.85923127 46.89855275 103.86328811 46.94844055 110.86737061 C46.96850096 114.14678722 46.97682243 117.42610127 46.98474121 120.70556641 C46.99770832 122.70866271 47.01122785 124.71175554 47.02539062 126.71484375 C47.02440872 127.6260347 47.02342682 128.53722565 47.02241516 129.47602844 C47.03068832 130.31401474 47.03896149 131.15200104 47.04748535 132.01538086 C47.05188503 133.10368446 47.05188503 133.10368446 47.0563736 134.213974 C47.35904746 136.62001976 48.01284808 138.20682403 49.3125 140.25 C53.38821599 141.84052331 55.95947747 141.18935221 59.8125 139.5 C61.32007458 138.76534437 62.82056314 138.01591411 64.3125 137.25 C65.488125 136.6725 66.66375 136.095 67.875 135.5 C69.0815625 134.88125 69.0815625 134.88125 70.3125 134.25 C71.97950921 137.11725584 73.24971758 139.41290107 73.5 142.75 C69.16846858 151.86901352 55.27824802 156.04678487 46.30859375 159.359375 C36.61881525 162.2164446 23.55858867 163.49462845 14 159.5625 C7.55287791 155.94858586 4.04035375 150.97603155 1.3125 144.25 C0.96790944 142.91953157 0.63301692 141.58647214 0.3125 140.25 C-0.32550537 140.63744385 -0.96351074 141.0248877 -1.62084961 141.42407227 C-43.22498016 166.5539085 -43.22498016 166.5539085 -65.42578125 162.78515625 C-74.14720891 160.49289921 -81.38107364 155.86760387 -86.46875 148.36328125 C-91.49687395 139.64464325 -92.02316719 130.0708071 -90.1015625 120.2578125 C-85.32754139 104.79699183 -70.03297346 95.04913223 -56.52001953 87.7109375 C-40.42628744 79.41022273 -23.44330515 72.55168632 -6.67578125 65.76171875 C-5.94915283 65.46740967 -5.22252441 65.17310059 -4.47387695 64.86987305 C-2.6875 64.25 -2.6875 64.25 -0.6875 64.25 C-0.6374636 59.8941391 -0.60148466 55.5384376 -0.57763672 51.18237305 C-0.56767817 49.70545532 -0.55410639 48.22855678 -0.53662109 46.75170898 C0.25381747 31.47951123 0.25381747 31.47951123 -4.9375 17.6875 C-8.79011512 14.27268205 -11.77676611 13.47928807 -16.8125 12.875 C-27.42361366 13.90188197 -36.00010143 18.08184261 -43.125 25.9375 C-45.75937668 29.83637749 -45.78057369 32.79906951 -45.6796875 37.38671875 C-45.66292969 38.60423828 -45.64617187 39.82175781 -45.62890625 41.07617188 C-45.58496868 43.63101245 -45.53300923 46.18572886 -45.47265625 48.74023438 C-45.36155471 58.3303177 -46.23403764 65.46746557 -52.96484375 72.7109375 C-58.60529743 77.75025439 -65.2085442 79.49892137 -72.6875 79.25 C-79.85791629 78.32824245 -83.90462516 75.78495981 -88.41015625 70.1875 C-92.05155384 64.66415686 -91.17164086 57.57841273 -90.6875 51.25 C-86.66507622 35.08761046 -70.15809848 23.65419825 -56.72900391 15.44335938 C-38.90193749 5.02256284 -20.62275393 0.08696997 0 0 Z " fill="#FFFFFF" transform="translate(486.6875,205.75)"/>
<path d="M0 0 C0.80442441 0.00742407 1.60884882 0.01484814 2.43764973 0.02249718 C3.35261109 0.03681502 3.35261109 0.03681502 4.28605652 0.05142212 C5.09594975 14.36210765 5.41480902 28.60550811 5.35197449 42.93716431 C5.34676392 45.03400559 5.34205936 47.13084819 5.33781433 49.22769165 C5.32797793 53.69467131 5.31517123 58.16162846 5.30009079 62.62859344 C5.27678391 69.69817772 5.26365494 76.76775939 5.25239563 83.83737183 C5.21915332 103.92340763 5.17714658 124.00939991 5.1146698 144.09536743 C5.08013524 155.22545598 5.05633853 166.35551389 5.04446137 177.4856503 C5.03638259 184.5089128 5.01519008 191.53197251 4.98425651 198.55516958 C4.96823068 202.91935851 4.96483696 207.28348955 4.96502686 211.64770508 C4.9626097 213.66610265 4.955053 215.68450182 4.94189835 217.70285797 C4.92465411 220.46415168 4.92610375 223.22484792 4.93202209 225.98617554 C4.92260145 226.77829839 4.91318081 227.57042123 4.90347469 228.3865478 C4.94244617 233.84628651 5.69073091 239.16955051 8.28605652 244.05142212 C11.47126754 245.74795006 11.47126754 245.74795006 15.28605652 246.05142212 C16.02340027 246.15712524 16.76074402 246.26282837 17.52043152 246.37173462 C19.43736959 246.63684308 21.36150626 246.84883788 23.28605652 247.05142212 C23.28605652 251.01142212 23.28605652 254.97142212 23.28605652 259.05142212 C-5.42394348 259.05142212 -34.13394348 259.05142212 -63.71394348 259.05142212 C-63.71394348 255.09142212 -63.71394348 251.13142212 -63.71394348 247.05142212 C-61.83706848 246.82454712 -59.96019348 246.59767212 -58.02644348 246.36392212 C-53.96814589 245.67956297 -51.93679828 245.20873139 -48.52644348 242.80142212 C-45.14866505 237.67651691 -45.56909496 231.85734408 -45.58695984 225.89138794 C-45.58461985 224.68335849 -45.58461985 224.68335849 -45.58223259 223.4509244 C-45.57825433 220.76109755 -45.58139993 218.07132748 -45.58454895 215.38150024 C-45.5831935 213.44948799 -45.58141276 211.51747599 -45.57923889 209.58546448 C-45.57468165 204.3438421 -45.57644712 199.10223941 -45.57961798 193.86061668 C-45.58215038 188.37412844 -45.57980158 182.88764188 -45.57823181 177.40115356 C-45.5764127 168.18773089 -45.57880968 158.97431623 -45.58357239 149.76089478 C-45.58901451 139.11018433 -45.58725167 128.45949303 -45.58174598 117.80878305 C-45.57720752 108.66299478 -45.5765679 99.51721228 -45.57918465 90.37142324 C-45.58074338 84.90961487 -45.58095222 79.44781549 -45.57764816 73.98600769 C-45.57475883 68.85112678 -45.57676473 63.71627054 -45.58254242 58.58139229 C-45.58386431 56.69721581 -45.58348558 54.81303726 -45.58127975 52.92886162 C-45.57854584 50.35636517 -45.58197685 47.78394772 -45.58695984 45.2114563 C-45.58361376 44.09403573 -45.58361376 44.09403573 -45.58020008 42.954041 C-45.59548872 38.88248696 -45.9244884 35.04631584 -46.71394348 31.05142212 C-47.27081848 30.88126587 -47.82769348 30.71110962 -48.40144348 30.53579712 C-53.80984957 28.81826275 -58.69457245 26.69799957 -63.71394348 24.05142212 C-63.71394348 21.41142212 -63.71394348 18.77142212 -63.71394348 16.05142212 C-63.02808167 15.92203247 -62.34221985 15.79264282 -61.63557434 15.65933228 C-45.68010644 12.5897063 -30.43651351 8.6863289 -15.11018372 3.30386353 C-13.88243225 2.88282349 -12.65468079 2.46178345 -11.38972473 2.02798462 C-10.3163385 1.64722778 -9.24295227 1.26647095 -8.13703918 0.87417603 C-5.17396432 0.16198986 -3.00071416 -0.03600118 0 0 Z " fill="#FFFFFF" transform="translate(948.7139434814453,104.94857788085938)"/>
<path d="M0 0 C2.4375 0.8125 2.4375 0.8125 4.4375 3.8125 C5.81723408 16.42157404 3.35490604 28.52062503 -1.75732422 39.95117188 C-3.11879522 43.09848991 -4.23978005 46.32822611 -5.375 49.5625 C-5.77332031 50.67109375 -6.17164063 51.7796875 -6.58203125 52.921875 C-8.25255656 57.8469297 -9.44982614 62.58140288 -8.5625 67.8125 C-6.76903576 71.10638912 -6.76903576 71.10638912 -3.5625 72.8125 C5.73286401 72.19280907 11.89943626 65.70043804 17.83862305 59.07666016 C23.13513108 52.99489199 27.80417962 46.64359907 32.05249023 39.78710938 C35.34894265 34.55604567 38.19608494 31.40041215 44.25 29.8125 C49.12996766 29.46458486 52.54522718 30.93726507 56.4375 33.8125 C60.43399544 37.57002973 63.73758657 41.88975542 67.0703125 46.23046875 C74.84978316 56.36101361 82.64830884 64.05377721 93.65356445 70.66918945 C98.9041816 73.87451233 101.15010082 76.21217752 102.60546875 82.140625 C102.95562255 83.77908052 103.29518267 85.41983001 103.625 87.0625 C103.80224609 87.90296875 103.97949219 88.7434375 104.16210938 89.609375 C104.59639776 91.67517921 105.01818676 93.7436042 105.4375 95.8125 C106.21480469 95.31105469 106.99210937 94.80960937 107.79296875 94.29296875 C110.4375 92.8125 110.4375 92.8125 112.75 93.125 C113.306875 93.351875 113.86375 93.57875 114.4375 93.8125 C114.5625 96.1875 114.5625 96.1875 114.4375 98.8125 C113.7775 99.4725 113.1175 100.1325 112.4375 100.8125 C107.11777549 100.5508742 103.90047937 99.83157428 99.4375 96.8125 C98.7775 96.8125 98.1175 96.8125 97.4375 96.8125 C97.35593563 99.66725306 97.29673628 102.51963565 97.25 105.375 C97.22486328 106.17486328 97.19972656 106.97472656 97.17382812 107.79882812 C97.10707285 113.25050866 97.82003172 116.99811589 100.4375 121.8125 C104.12093893 124.06349045 108.19327134 124.31317898 112.4375 124.8125 C112.57248901 125.90304687 112.57248901 125.90304687 112.71020508 127.015625 C113.82524272 134.83781147 115.99005712 141.58161366 119.125 148.8125 C119.56545654 149.86195801 120.00591309 150.91141602 120.4597168 151.99267578 C122.84587727 157.56370428 125.40654147 162.6395332 128.75 167.6875 C130.61397855 170.65411374 131.46390882 172.08727304 131.3359375 175.6015625 C130.11966996 180.23941785 128.37024868 183.89465421 124.4375 186.8125 C121.86021711 188.10114145 120.34878844 187.74705998 117.5 187.4375 C116.62472656 187.34726562 115.74945312 187.25703125 114.84765625 187.1640625 C112.4375 186.8125 112.4375 186.8125 109.4375 185.8125 C109.1075 184.1625 108.7775 182.5125 108.4375 180.8125 C111.33313337 178.96982422 113.94522007 177.62633597 117.1875 176.4375 C120.55864868 175.20159728 120.55864868 175.20159728 121.30078125 172.65625 C121.48073541 168.91320339 120.3273951 166.05962373 118.875 162.6875 C118.59688477 162.02516357 118.31876953 161.36282715 118.03222656 160.68041992 C112.5766943 147.92772798 104.92838666 132.58737595 91.4375 126.8125 C88.55578636 125.80979847 85.65720269 124.88948824 82.7421875 123.98828125 C77.74286185 122.20956137 73.15917883 119.767482 68.46875 117.30078125 C63.21478776 114.72119412 58.72983834 114.72383557 52.9453125 114.8984375 C52.12175262 114.91967682 51.29819275 114.94091614 50.44967651 114.96279907 C48.70970492 115.00898827 46.96980402 115.05791045 45.22998047 115.109375 C42.57924436 115.18700959 39.92839242 115.25431946 37.27734375 115.3203125 C35.58331634 115.36656916 33.88930515 115.41342461 32.1953125 115.4609375 C31.01378098 115.49071182 31.01378098 115.49071182 29.80838013 115.52108765 C23.56124909 115.68848985 23.56124909 115.68848985 17.4375 116.8125 C15.9106288 118.29650119 15.9106288 118.29650119 15.06640625 120.3046875 C14.72029297 121.00980469 14.37417969 121.71492188 14.01757812 122.44140625 C13.51387695 123.55322266 13.51387695 123.55322266 13 124.6875 C12.45569336 125.78771484 12.45569336 125.78771484 11.90039062 126.91015625 C9.64744849 131.19441088 9.64744849 131.19441088 10.4375 135.8125 C11.4275 135.379375 11.4275 135.379375 12.4375 134.9375 C16.19579945 133.52813771 19.45063498 132.44533572 23.4375 131.8125 C26 133.25 26 133.25 27.4375 135.8125 C27.625 139.375 27.625 139.375 26.4375 142.8125 C21.81143943 146.07176995 18.3726552 145.8278096 12.8125 145.5 C8.45194691 145.32142789 8.45194691 145.32142789 4.62890625 147.0546875 C-0.2790092 154.1795741 -2.4652644 165.34813502 -3 173.875 C-3.72601396 178.9570977 -4.84454018 180.34240417 -8.5625 183.8125 C-11.413638 185.88605491 -13.24288662 186.92974788 -16.8046875 186.61328125 C-20.69919771 185.81522588 -24.04765996 184.6812498 -27.5625 182.8125 C-27.5625 181.4925 -27.5625 180.1725 -27.5625 178.8125 C-26.386875 178.35875 -25.21125 177.905 -24 177.4375 C-23.27039062 177.15261719 -22.54078125 176.86773437 -21.7890625 176.57421875 C-19.5625 175.8125 -19.5625 175.8125 -15.875 175.25 C-11.38279441 173.30055229 -10.4606289 170.82849174 -8.5625 166.4453125 C-5.3826569 158.07338184 -5.33693947 150.73467214 -5.5625 141.8125 C-10.83084178 140.09828901 -15.95105019 138.69464459 -21.4375 137.875 C-24.75951727 137.30175232 -26.41552063 136.91162562 -29.25 135 C-30.94205881 132.17990198 -31.21819433 131.05795106 -30.5625 127.8125 C-28.3447463 125.70702768 -25.79813567 124.19948009 -23.1875 122.625 C-21.80364356 121.7581748 -20.42078645 120.88975162 -19.0390625 120.01953125 C-18.42111816 119.6428833 -17.80317383 119.26623535 -17.16650391 118.87817383 C-15.39680556 117.77858385 -15.39680556 117.77858385 -13.5625 115.8125 C-10.375 116.125 -10.375 116.125 -6.5625 116.8125 C-5.263125 116.998125 -3.96375 117.18375 -2.625 117.375 C-1.1090625 117.5915625 -1.1090625 117.5915625 0.4375 117.8125 C-0.91867531 121.10348541 -2.05179751 122.42645119 -5.2578125 123.953125 C-5.97324219 124.30117188 -6.68867187 124.64921875 -7.42578125 125.0078125 C-8.17214844 125.35585938 -8.91851563 125.70390625 -9.6875 126.0625 C-10.44160156 126.42601562 -11.19570312 126.78953125 -11.97265625 127.1640625 C-13.83071586 128.05781269 -15.69594818 128.93662375 -17.5625 129.8125 C-12.18110595 133.94767648 -8.43722455 135.08209704 -1.5625 134.8125 C1.04650601 128.16691866 2.0518354 121.92734687 2.4375 114.8125 C1.365 114.915625 0.2925 115.01875 -0.8125 115.125 C-7.72219057 115.08818104 -14.51221427 112.37946581 -19.78125 107.9453125 C-27.66849848 99.35623259 -28.9953895 90.12078896 -28.5625 78.8125 C-28.26845212 75.3750022 -27.81391499 71.97535687 -27.3125 68.5625 C-27.18190186 67.63300537 -27.05130371 66.70351074 -26.91674805 65.74584961 C-25.74785993 57.62740268 -24.34698288 49.55015211 -22.83300781 41.48925781 C-21.48384487 34.1981858 -21.48384487 34.1981858 -21.5625 26.8125 C-22.89603171 24.77606848 -22.89603171 24.77606848 -24.875 23.4375 C-25.79732422 22.71433594 -25.79732422 22.71433594 -26.73828125 21.9765625 C-28.66464023 20.64303978 -28.66464023 20.64303978 -31.5625 19.8125 C-31.69527344 20.45058594 -31.82804687 21.08867187 -31.96484375 21.74609375 C-32.14144531 22.57238281 -32.31804687 23.39867187 -32.5 24.25 C-32.76103516 25.48556641 -32.76103516 25.48556641 -33.02734375 26.74609375 C-33.5625 28.8125 -33.5625 28.8125 -34.5625 29.8125 C-36.56208364 29.85330783 -38.56295254 29.85504356 -40.5625 29.8125 C-41.49673645 26.80218256 -41.60699911 25.94599732 -40.5625 22.8125 C-41.861875 22.833125 -43.16125 22.85375 -44.5 22.875 C-45.85415633 22.89649454 -47.21006083 22.88398199 -48.5625 22.8125 C-49.5625 21.8125 -49.5625 21.8125 -49.875 18.0625 C-49.82433479 14.91562771 -49.5716642 13.82836112 -47.9375 11 C-44.22785154 7.58321852 -41.06399883 5.89100974 -35.9765625 5.625 C-34.10097656 5.7178125 -34.10097656 5.7178125 -32.1875 5.8125 C-27.11503949 5.96924714 -23.15632408 5.71253484 -18.53515625 3.5390625 C-15.1306155 2.28511284 -11.57863062 2.28856814 -7.98046875 2.12109375 C-4.68835895 1.70093757 -3.38723429 -0.24784641 0 0 Z " fill="#120F0D" transform="translate(1598.5625,143.1875)"/>
<path d="M0 0 C0.80539593 0.00742407 1.61079185 0.01484814 2.44059372 0.02249718 C3.35742872 0.03681502 3.35742872 0.03681502 4.29278564 0.05142212 C4.29775086 1.0762608 4.29775086 1.0762608 4.30281639 2.12180328 C4.38412347 18.76501613 4.47624106 35.40813074 4.58031273 52.05121613 C4.63038225 60.09976817 4.67682572 68.14831031 4.71466064 76.19692993 C4.74765625 83.21410748 4.78752903 90.23120694 4.8355757 97.24829817 C4.86076563 100.96197115 4.88256883 104.67559283 4.89612961 108.389328 C4.91141671 112.54047825 4.94206087 116.69138172 4.97393799 120.84243774 C4.97609818 122.0666745 4.97825836 123.29091125 4.98048401 124.55224609 C5.04070527 130.69383689 5.23290856 136.23042129 7.29278564 142.05142212 C10.7048998 144.32616489 12.94963854 144.61771856 16.98028564 145.17642212 C18.74952393 145.42778931 18.74952393 145.42778931 20.55450439 145.68423462 C21.45813721 145.80540649 22.36177002 145.92657837 23.29278564 146.05142212 C23.29278564 150.01142212 23.29278564 153.97142212 23.29278564 158.05142212 C-5.41721436 158.05142212 -34.12721436 158.05142212 -63.70721436 158.05142212 C-63.70721436 154.09142212 -63.70721436 150.13142212 -63.70721436 146.05142212 C-62.80358154 145.95345337 -61.89994873 145.85548462 -60.96893311 145.75454712 C-59.19969482 145.53025024 -59.19969482 145.53025024 -57.39471436 145.30142212 C-55.63707764 145.09259399 -55.63707764 145.09259399 -53.84393311 144.87954712 C-50.65906697 144.32462604 -50.65906697 144.32462604 -48.85174561 142.16079712 C-47.10631204 138.94395709 -46.5796948 136.36190255 -46.55331421 132.76260376 C-46.54471375 131.88774323 -46.53611328 131.01288269 -46.5272522 130.11151123 C-46.52299225 129.15453339 -46.5187323 128.19755554 -46.51434326 127.21157837 C-46.50616577 126.20158783 -46.49798828 125.19159729 -46.48956299 124.15100098 C-46.46472702 120.80531409 -46.4482015 117.45966943 -46.43377686 114.11392212 C-46.42845318 112.97303131 -46.4231295 111.8321405 -46.4176445 110.65667725 C-46.39092648 104.62322664 -46.37154334 98.58979668 -46.3571167 92.55630493 C-46.34043144 86.31133851 -46.29561705 80.06689599 -46.24474525 73.8221283 C-46.21117689 69.03013466 -46.19955097 64.23826731 -46.19388962 59.44616699 C-46.18715313 57.14316787 -46.17186949 54.84017774 -46.14799881 52.53729248 C-46.11655532 49.32150762 -46.11627888 46.10716259 -46.12371826 42.89126587 C-46.10731293 41.93428802 -46.09090759 40.97731018 -46.07400513 39.99133301 C-46.09698661 37.57435466 -46.15466177 35.40424954 -46.70721436 33.05142212 C-48.92068274 30.89157393 -48.92068274 30.89157393 -51.70721436 30.05142212 C-52.73459717 29.59380493 -53.76197998 29.13618774 -54.82049561 28.66470337 C-55.87623779 28.23544556 -56.93197998 27.80618774 -58.01971436 27.36392212 C-59.08834717 26.92692993 -60.15697998 26.48993774 -61.25799561 26.03970337 C-62.06623779 25.71357056 -62.87447998 25.38743774 -63.70721436 25.05142212 C-63.70721436 22.08142212 -63.70721436 19.11142212 -63.70721436 16.05142212 C-62.98582275 15.92203247 -62.26443115 15.79264282 -61.5211792 15.65933228 C-45.38596049 12.70142043 -30.09786443 8.94001868 -14.69696045 3.30386353 C-13.51956299 2.88282349 -12.34216553 2.46178345 -11.12908936 2.02798462 C-10.1039624 1.64722778 -9.07883545 1.26647095 -8.02264404 0.87417603 C-5.0998792 0.14886546 -2.96796559 -0.03555246 0 0 Z " fill="#FFFFFF" transform="translate(1058.7072143554688,205.94857788085938)"/>
<path d="M0 0 C1.4589423 -0.00515594 2.91787834 -0.01244969 4.37680054 -0.02168274 C8.29012442 -0.03998932 12.20275542 -0.02739317 16.11604929 -0.00759244 C20.23922749 0.00896302 24.36236756 -0.00004176 28.48556519 -0.00511169 C35.403248 -0.00961298 42.32065868 0.00611685 49.23828125 0.03417969 C57.20407329 0.06624812 65.16937562 0.06619957 73.13520253 0.04896492 C80.84261646 0.0330327 88.54985307 0.03987459 96.25725937 0.05690193 C99.51771723 0.0637241 102.77803089 0.06279036 106.03848648 0.05535698 C109.88509546 0.04762447 113.73115532 0.06004365 117.57767105 0.08720589 C118.97835665 0.09401762 120.37909427 0.09426652 121.77977753 0.08699036 C139.17142417 0.00714007 152.72657014 5.27996822 165.40966797 17.14672852 C174.30803068 26.65825571 179.829676 38.79820986 179.88105774 51.83947754 C179.8917907 53.71479156 179.8917907 53.71479156 179.90274048 55.62799072 C179.90558043 57.0059812 179.9082922 58.38397194 179.91088867 59.76196289 C179.91715832 61.21942302 179.92380556 62.67688156 179.93080139 64.13433838 C179.95179217 68.91449888 179.96220209 73.6946595 179.97216797 78.47485352 C179.97621799 80.1254325 179.98033499 81.77601132 179.98451805 83.42658997 C180.0035622 91.18628808 180.01779242 98.94597675 180.02613002 106.70569372 C180.03588678 115.63688574 180.06216857 124.5678289 180.10263091 133.49893332 C180.13289234 140.41807806 180.14760853 147.3371519 180.15091103 154.25636148 C180.15325093 158.38103708 180.16207133 162.50544659 180.18737221 166.63005066 C180.21083301 170.51748016 180.21481486 174.40447181 180.20461082 178.29195404 C180.20411962 179.70878821 180.21031552 181.12564526 180.22416687 182.5424118 C180.38510657 199.99879705 175.13857748 213.5837199 163.21435547 226.30688477 C156.13408407 232.94115482 147.95346612 236.85178136 138.73388672 239.63110352 C137.85725734 239.89632026 137.85725734 239.89632026 136.96291828 240.16689491 C134.15778086 240.75108086 131.52573628 240.77025452 128.65922546 240.78500366 C127.4132811 240.79360413 126.16733673 240.80220459 124.88363647 240.81106567 C123.50518841 240.8155007 122.12673989 240.81979907 120.74829102 240.82397461 C119.29422309 240.83188006 117.84015709 240.84014928 116.38609314 240.84875488 C111.61011621 240.87494223 106.83413071 240.89028765 102.05810547 240.90454102 C100.40912178 240.90990363 98.76013815 240.91528115 97.11115456 240.92067337 C90.24405393 240.94230476 83.3769556 240.9610354 76.50982952 240.97229576 C66.69873782 240.988493 56.88804478 241.02156437 47.07710332 241.07869661 C40.1638944 241.11756641 33.2507913 241.13694897 26.33747607 241.14221632 C22.21712409 241.14584899 18.0971976 241.15764388 13.97696495 241.19031906 C10.0902975 241.22069827 6.20430623 241.22660723 2.31754494 241.2149353 C0.90315334 241.21471698 -0.51127239 241.22281844 -1.92555237 241.24058914 C-16.57238974 241.41437077 -28.75844499 237.94580106 -40.26611328 228.63110352 C-41.31798828 227.86797852 -42.36986328 227.10485352 -43.45361328 226.31860352 C-54.05742676 216.18607064 -60.21352605 202.37890359 -60.65379333 187.77713013 C-60.67447517 185.18448847 -60.67956303 182.59507495 -60.67016602 180.00268555 C-60.67588158 178.56404087 -60.68285039 177.12540073 -60.69096375 175.68676758 C-60.70878046 171.81057025 -60.70774852 167.93460072 -60.70202136 164.05837488 C-60.69891243 160.80822268 -60.70504085 157.55811316 -60.71106011 154.30796707 C-60.72506632 146.63292764 -60.723577 138.95799962 -60.7121582 131.28295898 C-60.7006837 123.39679884 -60.71475023 115.51097906 -60.74155468 107.62486374 C-60.76379309 100.82447088 -60.77033073 94.02418422 -60.76447827 87.22375762 C-60.76112652 83.17521307 -60.76340374 79.12688651 -60.78072929 75.07837296 C-60.79632681 71.26797243 -60.7921032 67.45807152 -60.77342415 63.64768982 C-60.76804945 61.6046671 -60.78215469 59.56162123 -60.79711914 57.51864624 C-60.67833152 42.45275036 -55.88774808 27.76031281 -45.41845703 16.60375977 C-32.07893091 4.37787829 -17.8551944 -0.16363479 0 0 Z M-40.26611328 22.63110352 C-50.67977642 35.56527111 -53.57300672 47.94671945 -53.54077148 64.31396484 C-53.54512689 65.67511777 -53.55031278 67.03626825 -53.55625916 68.39741516 C-53.56957294 72.07115246 -53.57023627 75.7447864 -53.56769586 79.4185431 C-53.56662072 82.49719358 -53.57152343 85.57582361 -53.57630128 88.65446967 C-53.58737061 95.9247729 -53.58784872 103.19502446 -53.58178711 110.46533203 C-53.57575213 117.93788439 -53.58805209 125.41024824 -53.60935718 132.88276845 C-53.62703645 139.32301136 -53.63296452 145.76319462 -53.62971944 152.20346087 C-53.62791612 156.03902646 -53.63044649 159.87445762 -53.64443398 163.71000099 C-53.65711088 167.32084897 -53.65497635 170.93140561 -53.64202309 174.54224968 C-53.63857158 176.47932589 -53.6497628 178.41641142 -53.66159058 180.35345459 C-53.57600171 194.76980282 -49.99500158 208.1993022 -40.00830078 219.01391602 C-30.04143441 228.2656709 -17.90905927 233.72102173 -4.27915955 233.77827454 C-2.5153746 233.78900749 -2.5153746 233.78900749 -0.71595764 233.79995728 C0.56050125 233.80264618 1.83696014 233.80533508 3.15209961 233.80810547 C4.52103851 233.81437773 5.88997573 233.8210252 7.25891113 233.82801819 C11.74144321 233.8489751 16.2239753 233.85941462 20.70654297 233.86938477 C22.2558996 233.87343583 23.80525606 233.87755286 25.35461235 233.88173485 C32.63803594 233.90077032 39.92144952 233.91500323 47.20489317 233.92334682 C55.58254756 233.93310503 63.95993674 233.95939426 72.33749777 233.99984771 C78.83203786 234.03012051 85.32650241 234.04482632 91.82111162 234.04812783 C95.69091529 234.0504661 99.56043514 234.05926517 103.43016243 234.084589 C107.07712627 234.10807062 110.72362344 234.11202364 114.37064362 234.10182762 C116.3254805 234.10110541 118.28029477 234.12005538 120.23503113 234.13989258 C135.3442712 234.05214065 148.5028332 229.22736998 159.59326172 218.93188477 C168.21049192 209.66993478 172.83785583 198.32064077 172.87432861 185.71298218 C172.88003876 184.52719574 172.8857489 183.3414093 172.89163208 182.11968994 C172.89274994 180.82714294 172.8938678 179.53459595 172.89501953 178.20288086 C172.89965152 176.82099272 172.9046767 175.43910586 172.9100647 174.05722046 C172.92315679 170.30896408 172.92962779 166.56072559 172.93407536 162.81244993 C172.93701215 160.46669623 172.94111816 158.12094734 172.94557953 155.77519608 C172.95924807 148.42449415 172.96891702 141.07380333 172.97278142 133.72308958 C172.9772562 125.25942347 172.99477974 116.79591933 173.02378201 108.33230245 C173.04546023 101.77666663 173.05548902 95.22107617 173.05682254 88.66540492 C173.05786648 84.75658278 173.06368574 80.84791303 173.08164215 76.93912888 C173.09822872 73.25694763 173.1002276 69.57503158 173.09150314 65.89282608 C173.09037647 63.91376044 173.10401306 61.93470319 173.11825562 59.95568848 C173.04738943 44.65154026 168.73620474 32.06918751 158.11669922 20.88891602 C149.0184708 12.26797171 137.40748579 7.52726777 124.86045837 7.49066162 C123.09656769 7.48209641 123.09656769 7.48209641 121.29704285 7.47335815 C119.37460503 7.47168137 119.37460503 7.47168137 117.41333008 7.4699707 C116.04291654 7.4653386 114.67250428 7.46031342 113.30209351 7.45492554 C109.58476074 7.44183323 105.86744601 7.43536223 102.15009379 7.43091488 C99.82309336 7.42797771 97.49609778 7.4238716 95.16909981 7.41941071 C87.87552697 7.40574121 80.58196532 7.3960731 73.28838056 7.39220881 C64.89377446 7.38773583 56.49933181 7.37022104 48.10477537 7.34120822 C41.60092814 7.31951752 35.09712664 7.30950053 28.59324366 7.3081677 C24.71624714 7.30712451 20.83940437 7.30132176 16.96244621 7.28334808 C13.30898843 7.2667401 9.65579785 7.26477277 6.00231552 7.27348709 C4.04133391 7.27461168 2.08036065 7.26099117 0.11943054 7.24673462 C-14.9222764 7.31679563 -29.73270702 11.23471939 -40.26611328 22.63110352 Z " fill="#000000" transform="translate(1579.26611328125,116.368896484375)"/>
<path d="M0 0 C5.99552578 5.01928063 9.0287597 9.88706036 11.5 17.30078125 C12.40045662 27.95864483 10.95028407 35.2724242 4.25 43.61328125 C-1.3311227 49.62556364 -7.64331973 51.91986515 -15.6875 52.55078125 C-26.02489555 51.87291925 -32.64559778 48.105794 -39.5 40.30078125 C-44.68954438 33.23872086 -44.38740422 24.71739861 -43.5 16.30078125 C-41.67522424 8.78572842 -36.95653517 3.08823386 -30.4453125 -0.984375 C-20.65423278 -6.13854715 -9.35748661 -6.36016668 0 0 Z " fill="#FFFFFF" transform="translate(1050.5,116.69921875)"/>
<path d="M0 0 C1.88579796 0.25512487 3.77138478 0.51192672 5.65576172 0.77734375 C8.0577144 1.00548173 10.28594514 0.94402929 12.69140625 0.78125 C25.5132135 -0.02408451 25.5132135 -0.02408451 29.6484375 2.82421875 C31.40264477 5.14145761 32.68119795 7.41580533 34 10 C34.67780518 10.71220703 35.35561035 11.42441406 36.05395508 12.15820312 C38.5336109 15.77922857 38.51276691 18.69673796 38.390625 22.92578125 C38.38659668 23.58912476 38.38256836 24.25246826 38.37841797 24.93591309 C38.35761467 27.39505997 38.30176913 29.85381008 38.25 32.3125 C38.1675 37.819375 38.085 43.32625 38 49 C21.83 49 5.66 49 -11 49 C-12.39279473 13.06589596 -12.39279473 13.06589596 -4.64501953 4.34130859 C-3.48662423 3.1687713 -2.24978328 2.07459999 -1 1 C-0.67 0.67 -0.34 0.34 0 0 Z " fill="#FFCC01" transform="translate(1633,189)"/>
<path d="M0 0 C0 15.84 0 31.68 0 48 C-21.61431412 60.35103664 -21.61431412 60.35103664 -36 59 C-41.45655175 57.31342946 -44.78941766 53.6014861 -48 49 C-50.27837727 42.16486818 -49.53677903 36.36827549 -46.5 29.875 C-39.13106185 16.53585733 -16.1568344 0 0 0 Z " fill="#FF0001" transform="translate(486,283)"/>
<path d="M0 0 C11.21015807 0.63125162 11.21015807 0.63125162 15 4 C22 12.8872549 22 12.8872549 22 18 C20.32612753 20.30921092 18.70887725 22.20980865 16.75 24.25 C8.31283986 33.56402437 0.71975161 43.83199316 -3.6875 55.6875 C-5.7721247 61.2060701 -8.64937051 64.4361567 -14 67 C-18.01363541 68.24293226 -20.37772099 67.87184589 -24.25 66.3125 C-25.12140625 65.97863281 -25.9928125 65.64476562 -26.890625 65.30078125 C-29 64 -29 64 -29.796875 61.85546875 C-29.86390625 61.24316406 -29.9309375 60.63085938 -30 60 C-26.52113211 57.68075474 -25.3732148 57.91680994 -21.3125 58 C-17.59852759 57.73631243 -15.62345078 57.50835218 -12.71484375 55.13671875 C-10.61581683 52.52023788 -8.80192097 49.82890307 -7 47 C-6.31035156 46.05125 -5.62070313 45.1025 -4.91015625 44.125 C0.61410108 36.38898229 5.81131151 27.48951508 6.6875 17.8125 C5.85071433 13.17214308 3.96257827 10.14930359 1.3125 6.296875 C0 4 0 4 0 0 Z " fill="#100D0F" transform="translate(1651,261)"/>
<path d="M0 0 C1.485 0.99 1.485 0.99 3 2 C3.34057617 4.70556641 3.34057617 4.70556641 3.29296875 8.1015625 C3.28330078 9.31328125 3.27363281 10.525 3.26367188 11.7734375 C3.23853516 13.04445312 3.21339844 14.31546875 3.1875 15.625 C3.17396484 16.90375 3.16042969 18.1825 3.14648438 19.5 C3.11103196 22.66708282 3.06161441 25.83333541 3 29 C2.01 29 1.02 29 0 29 C0 19.43 0 9.86 0 0 Z " fill="#FFCC01" transform="translate(1675,209)"/>
</svg>
