<?xml version="1.0" encoding="UTF-8"?>
<svg version="1.1" xmlns="http://www.w3.org/2000/svg" width="878" height="349">
<path d="M0 0 C289.74 0 579.48 0 878 0 C878 115.17 878 230.34 878 349 C588.26 349 298.52 349 0 349 C0 233.83 0 118.66 0 0 Z " fill="#02528A" transform="translate(0,0)"/>
<path d="M0 0 C289.74 0 579.48 0 878 0 C878 19.47 878 38.94 878 59 C588.26 59 298.52 59 0 59 C0 39.53 0 20.06 0 0 Z " fill="#FAFAFB" transform="translate(0,290)"/>
<path d="M0 0 C0.92425781 0.44214844 1.84851563 0.88429688 2.80078125 1.33984375 C9.97764292 5.0044082 15.98942778 9.65930835 22 15 C22.71027344 15.62648438 23.42054688 16.25296875 24.15234375 16.8984375 C41.01100672 32.72221225 48.31044948 53.95346868 49.57275391 76.62084961 C49.87840683 89.07692047 46.26683717 101.08241582 43 113 C42.34 113 41.68 113 41 113 C40.91621094 113.86238281 40.83242188 114.72476563 40.74609375 115.61328125 C37.95348648 128.28967132 23.88236164 141.67609327 13.48828125 148.44921875 C12.66714844 148.96097656 11.84601563 149.47273437 11 150 C10.20980469 150.52207031 9.41960937 151.04414063 8.60546875 151.58203125 C-9.58345847 163.1888588 -33.14737147 167.36309397 -54.38671875 163.2734375 C-58.01611026 162.35583183 -61.4836336 161.28096204 -65 160 C-66.0415625 159.62617188 -67.083125 159.25234375 -68.15625 158.8671875 C-89.31981594 150.63085127 -103.65295977 136.83185476 -114.5 117.125 C-114.85102783 116.49424561 -115.20205566 115.86349121 -115.5637207 115.21362305 C-117.43731554 111.66830696 -118.42824993 109.0224904 -118 105 C-118.66 105 -119.32 105 -120 105 C-122.18030777 97.73230744 -122.65411371 90.55888097 -123 83 C-123.04253906 82.0925 -123.08507812 81.185 -123.12890625 80.25 C-123.43474626 66.87459698 -121.73467239 54.17024918 -116 42 C-115.5565625 41.05640625 -115.113125 40.1128125 -114.65625 39.140625 C-111.01772291 31.98485506 -106.3183073 25.98538021 -101 20 C-100.37351562 19.28972656 -99.74703125 18.57945313 -99.1015625 17.84765625 C-73.95630298 -8.94212446 -32.7925427 -15.87611377 0 0 Z " fill="#FBFCFD" transform="translate(378,67)"/>
<path d="M0 0 C12.7447677 -0.09079708 25.48931639 -0.16400057 38.2343359 -0.20724869 C44.15398732 -0.22801799 50.07340371 -0.2561385 55.99291992 -0.30175781 C61.71826511 -0.34559863 67.44338593 -0.36921698 73.16888618 -0.37950897 C75.34029224 -0.38683231 77.51168768 -0.40113042 79.68299675 -0.42292023 C95.51888821 -0.57534645 111.2657901 0.00847635 125.5 7.8125 C126.15669678 8.15651855 126.81339355 8.50053711 127.48999023 8.85498047 C132.78557405 11.70539114 137.46300842 15.0514885 142 19 C142.57492188 19.433125 143.14984375 19.86625 143.7421875 20.3125 C150.79652109 25.77391956 156.09127313 33.63690969 161 41 C161 42.32 161 43.64 161 45 C161.66 45 162.32 45 163 45 C168.84300959 61.7700447 172.50018581 76.00936464 172.05322266 93.81884766 C172.008707 95.6431728 171.99129221 97.46813267 171.98046875 99.29296875 C171.66442036 107.77945326 168.71648559 115.25933925 165.71142578 123.10449219 C164.73275793 125.71203412 163.85942737 128.3511369 163 131 C162.34 131 161.68 131 161 131 C159.92474806 133.65228812 158.90543849 136.28368454 158 139 C157.34 139 156.68 139 156 139 C155.6596875 140.07314453 155.6596875 140.07314453 155.3125 141.16796875 C153.71964776 144.60492671 151.69865027 146.66484167 149 149.3125 C148.113125 150.19550781 147.22625 151.07851562 146.3125 151.98828125 C144 154 144 154 142 154 C141.67 154.99 141.34 155.98 141 157 C125.79130686 167.44349285 107.35108776 172.18631932 89.11743164 172.11352539 C88.15080597 172.11367142 87.1841803 172.11381744 86.18826294 172.1139679 C83.01220407 172.11327455 79.8362048 172.10550928 76.66015625 172.09765625 C74.45055676 172.09579002 72.24095686 172.09436708 70.03135681 172.09336853 C64.22979581 172.08955952 58.42826005 172.07974307 52.62670898 172.06866455 C46.70101259 172.05841564 40.77531209 172.05386346 34.84960938 172.04882812 C23.23306008 172.03811932 11.61653609 172.02053564 0 172 C0 160.12 0 148.24 0 136 C2.7951709 135.98541748 5.5903418 135.97083496 8.47021484 135.95581055 C17.73029065 135.90535692 26.9902002 135.8387429 36.25011253 135.76428509 C41.86155115 135.71965627 47.47291842 135.68038363 53.08447266 135.65356445 C58.50517043 135.62745682 63.92559251 135.58700168 69.34611893 135.53681374 C71.40880516 135.52019541 73.47153902 135.50864991 75.53428268 135.50238609 C78.43509216 135.49269012 81.33520428 135.46456557 84.23583984 135.43237305 C85.50036484 135.43452568 85.50036484 135.43452568 86.79043579 135.4367218 C98.5847962 135.25294694 109.63162975 130.71504893 118.375 122.78125 C130.31219685 109.69624576 131.59716277 93.337268 131.14501953 76.59375 C130.75342949 69.58995781 128.83126983 63.83812546 125 58 C125 57.01 125 56.02 125 55 C124.34 55 123.68 55 123 55 C121.5546875 53.4609375 121.5546875 53.4609375 119.875 51.375 C113.17250045 43.56920834 105.26002731 37.85974616 94.74310684 36.76509094 C88.07087677 36.35881812 81.38906384 36.39328193 74.70703125 36.390625 C72.54797638 36.37562612 70.38893291 36.35889542 68.22990417 36.34051514 C62.57965537 36.29702135 56.9295613 36.27688242 51.2791748 36.26177979 C45.50047728 36.24214373 39.72194529 36.20018114 33.94335938 36.16015625 C22.6289295 36.08504871 11.31461968 36.03670598 0 36 C0 24.12 0 12.24 0 0 Z " fill="#FCFDFD" transform="translate(59,59)"/>
<path d="M0 0 C10.69262809 7.9211275 19.08632126 20.25429999 21.15625 33.68359375 C21.21554687 34.3590625 21.27484375 35.03453125 21.3359375 35.73046875 C21.45582031 36.83648437 21.45582031 36.83648437 21.578125 37.96484375 C22.32170385 51.34926299 16.89374154 64.43445159 8.71484375 74.78125 C-0.47683116 84.72236603 -13.13728535 90.59093508 -26.61767578 91.20117188 C-41.19583306 91.40987849 -53.65174957 86.34863164 -64.4140625 76.54296875 C-75.42641303 64.73645832 -78.5512487 51.39970168 -78.07421875 35.79296875 C-77.24183707 21.95299244 -71.19036919 11.78154612 -61.2265625 2.41796875 C-44.15611902 -12.0660439 -18.41148469 -12.0657788 0 0 Z " fill="#03528A" transform="translate(369.6640625,104.26953125)"/>
<path d="M0 0 C7.87530013 6.75025725 7.87530013 6.75025725 10.80296326 9.67597961 C11.46888992 10.33908646 12.13481659 11.0021933 12.82092285 11.68539429 C13.52511353 12.39160919 14.2293042 13.0978241 14.95483398 13.82543945 C16.09753502 14.96551201 16.09753502 14.96551201 17.26332092 16.12861633 C19.76008618 18.62100886 22.25320999 21.11700691 24.74609375 23.61328125 C26.48472217 25.35123574 28.223499 27.08904179 29.9624176 28.82670593 C33.59432982 32.45714775 37.22443647 36.08938281 40.85327148 39.72290039 C45.51635389 44.39170525 50.18394531 49.0559725 54.8528738 53.71893024 C58.43786347 57.30031827 62.02048272 60.88406986 65.60237312 64.46855736 C67.32372593 66.19057922 69.0458273 67.91185313 70.76867485 69.63237953 C73.16517916 72.02636109 75.5584832 74.42349543 77.95092773 76.8215332 C78.66928802 77.53786926 79.38764832 78.25420532 80.1277771 78.99224854 C80.773965 79.64125626 81.42015289 80.29026398 82.08592224 80.9589386 C82.65202933 81.52542272 83.21813643 82.09190683 83.80139828 82.67555714 C85 84 85 84 85 85 C68.83 85 52.66 85 36 85 C36 113.38 36 141.76 36 171 C24.12 171 12.24 171 0 171 C0 114.57 0 58.14 0 0 Z " fill="#FDFDFE" transform="translate(451,60)"/>
<path d="M0 0 C0 56.43 0 112.86 0 171 C-11.88 171 -23.76 171 -36 171 C-36 142.62 -36 114.24 -36 85 C-52.17 85 -68.34 85 -85 85 C-78.24974275 77.12469987 -78.24974275 77.12469987 -75.32402039 74.19703674 C-74.32936012 73.19814674 -74.32936012 73.19814674 -73.31460571 72.17907715 C-72.25528336 71.12279114 -72.25528336 71.12279114 -71.17456055 70.04516602 C-70.41451218 69.28336533 -69.65446381 68.52156464 -68.87138367 67.73667908 C-66.37899114 65.23991382 -63.88299309 62.74679001 -61.38671875 60.25390625 C-59.64876426 58.51527783 -57.91095821 56.776501 -56.17329407 55.0375824 C-52.54285225 51.40567018 -48.91061719 47.77556353 -45.27709961 44.14672852 C-40.60829475 39.48364611 -35.9440275 34.81605469 -31.28106976 30.1471262 C-27.69968173 26.56213653 -24.11593014 22.97951728 -20.53144264 19.39762688 C-18.80942078 17.67627407 -17.08814687 15.9541727 -15.36762047 14.23132515 C-12.97363891 11.83482084 -10.57650457 9.4415168 -8.1784668 7.04907227 C-7.46213074 6.33071198 -6.74579468 5.61235168 -6.00775146 4.8722229 C-5.03423988 3.90294106 -5.03423988 3.90294106 -4.0410614 2.91407776 C-3.47457728 2.34797067 -2.90809317 1.78186357 -2.32444286 1.19860172 C-1 0 -1 0 0 0 Z " fill="#FDFDFE" transform="translate(623,60)"/>
<path d="M0 0 C1.6152354 0.00561362 3.23047599 0.00987533 4.84571838 0.01286316 C9.04276292 0.02417323 13.23948279 0.0535163 17.43640137 0.0869751 C22.50106347 0.12345569 27.56583574 0.13690323 32.63059235 0.15433502 C40.27608762 0.18316594 47.92087428 0.24074781 55.56640625 0.29296875 C55.56640625 12.50296875 55.56640625 24.71296875 55.56640625 37.29296875 C50.59191406 37.33035156 45.61742187 37.36773437 40.4921875 37.40625 C37.31572245 37.43657334 34.1393105 37.46774954 30.96289062 37.50195312 C25.93582038 37.55600464 20.90885514 37.60712296 15.8815918 37.6394043 C11.82244446 37.66566849 7.76365566 37.70622821 3.70473289 37.75615501 C2.16647027 37.77266921 0.62814586 37.78427858 -0.91019249 37.79058266 C-16.61653859 37.86137495 -28.96339448 39.54533339 -40.83984375 50.515625 C-51.0431803 60.97404497 -53.54514317 71.85071583 -56.43359375 86.29296875 C-68.31359375 86.29296875 -80.19359375 86.29296875 -92.43359375 86.29296875 C-92.43359375 60.67353095 -83.0777254 40.96321748 -65.09375 22.94921875 C-46.45637489 5.30865624 -24.84334472 -0.25844205 0 0 Z " fill="#FAFBFC" transform="translate(764.43359375,58.70703125)"/>
<path d="M0 0 C12.21 0 24.42 0 37 0 C37 14.625 37 14.625 35.5 20.8125 C35.2215625 21.99457031 34.943125 23.17664063 34.65625 24.39453125 C34.4396875 25.25433594 34.223125 26.11414063 34 27 C33.34 27 32.68 27 32 27 C31.89042969 27.556875 31.78085937 28.11375 31.66796875 28.6875 C29.50838862 39.0815767 26.07278032 46.83101381 19 55 C18.34 55 17.68 55 17 55 C16.93941406 55.55300781 16.87882813 56.10601562 16.81640625 56.67578125 C13.34912366 66.54675321 -1.15344626 73.68528002 -10.00390625 78.06591797 C-23.59157114 84.42433356 -36.3144634 86.30972132 -51.1953125 86.1953125 C-52.63833417 86.19157392 -54.08135841 86.18873095 -55.52438354 86.18673706 C-59.2890547 86.179167 -63.05356707 86.15957702 -66.81817627 86.1373291 C-71.35295328 86.11309243 -75.88778393 86.10405807 -80.42260742 86.09242249 C-87.2818481 86.07314749 -94.14074162 86.03477934 -101 86 C-101 74.12 -101 62.24 -101 50 C-96.74738281 49.97421875 -92.49476563 49.9484375 -88.11328125 49.921875 C-84.68693113 49.89012013 -81.26067007 49.85446552 -77.83438873 49.81620789 C-74.23714956 49.77709611 -70.64014917 49.74459013 -67.04272461 49.72900391 C-63.56700401 49.71367473 -60.09193432 49.67895051 -56.61650658 49.63169098 C-54.66886244 49.60999418 -52.72103372 49.60754034 -50.77326965 49.60565186 C-37.97486267 49.39884177 -25.95549224 46.39710972 -16 38 C-5.334843 26.5208357 -2.22697922 15.58885457 0 0 Z " fill="#FCFDFD" transform="translate(748,145)"/>
<path d="M0 0 C4.71951233 2.01310172 8.22912108 5.73710936 11 10 C12.70801838 15.40872489 12.76082833 20.85983313 10.4375 26.0625 C7.64142551 31.19529389 3.570667 35.143111 -2 37 C-8.08977939 37.84079794 -12.25147193 36.97895327 -17.27734375 33.421875 C-21.50700986 29.93072202 -23.86364203 26.37187405 -25 21 C-25.09808547 14.94049736 -23.97546493 10.72757991 -20 6 C-13.60629604 -0.03395591 -8.71575328 -0.99321644 0 0 Z " fill="#0F5990" transform="translate(855,59)"/>
<path d="M0 0 C3.375 1.6875 3.375 1.6875 6 4 C6.78375 4.66 7.5675 5.32 8.375 6 C10.95145824 10.75653829 10.46053473 15.70007572 10 21 C9.67 21.99 9.34 22.98 9 24 C8.34 24 7.68 24 7 24 C6.731875 24.61875 6.46375 25.2375 6.1875 25.875 C5 28 5 28 2 30 C-4.39605841 30.71067316 -10.60599463 30.87261924 -16 27 C-20.02580507 22.69655321 -20.36144996 17.9372805 -20.27734375 12.24609375 C-19.68114727 7.41774196 -16.83953002 4.75957478 -13.375 1.625 C-8.80155451 -0.57702931 -4.99046524 -0.80465156 0 0 Z " fill="#7A7A79" transform="translate(814,304)"/>
<path d="M0 0 C6.09334975 4.15455665 6.09334975 4.15455665 7.75 7.875 C8.54923124 12.94109483 8.99304293 18.23720418 6.7578125 22.98046875 C3.87345431 26.60831057 0.69534864 28.65176327 -3.87109375 29.17578125 C-13.44859101 29.21563214 -13.44859101 29.21563214 -17.25 25.875 C-21.32505527 21.23396483 -22.66648636 18.42450579 -22.59765625 12.328125 C-21.85620867 7.09633755 -18.86520333 3.31073629 -15 -0.125 C-9.84870784 -1.99819715 -5.14885776 -1.78229692 0 0 Z " fill="#7A7A79" transform="translate(343.25,305.125)"/>
<path d="M0 0 C16.20535714 -0.80357143 16.20535714 -0.80357143 20.4375 2.875 C24.50501049 7.27173457 24.34022961 11.1773088 24.27734375 17.01171875 C23.90352577 21.03947586 22.81565828 23.11024545 20 26 C14 29 14 29 0 29 C0 19.43 0 9.86 0 0 Z " fill="#757574" transform="translate(485,305)"/>
<path d="M0 0 C3.8053125 -0.12375 3.8053125 -0.12375 7.6875 -0.25 C8.87218872 -0.30462402 8.87218872 -0.30462402 10.08081055 -0.36035156 C13.83014482 -0.4191349 15.68158712 -0.18739925 19 1.765625 C21 4 21 4 21.48828125 6 C21.43027344 6.66 21.37226563 7.32 21.3125 8 C21.24482422 8.99 21.24482422 8.99 21.17578125 10 C21.11777344 10.66 21.05976563 11.32 21 12 C21 13.32 21 14.64 21 16 C21.66 16.66 22.32 17.32 23 18 C23.63676845 23.63994911 23.63676845 23.63994911 23 26 C20.86185991 28.46444259 19.18288068 29.82301518 15.90161133 30.31396484 C13.48082306 30.39370129 11.10814408 30.34857925 8.6875 30.25 C4.3871875 30.12625 4.3871875 30.12625 0 30 C0 20.1 0 10.2 0 0 Z " fill="#797978" transform="translate(233,304)"/>
<path d="M0 0 C15.65 0 15.65 0 21.8125 4.25 C23.81048544 7.1943996 23.40967334 9.54703896 23 13 C21 16.25 21 16.25 19 19 C19 23.27053927 21.30125972 24.82898018 24 28 C24 28.66 24 29.32 24 30 C21.7109375 30.27734375 21.7109375 30.27734375 19 30 C17.2265625 28.06640625 17.2265625 28.06640625 15.625 25.5625 C13.3433506 22.2189708 13.3433506 22.2189708 9.99609375 20.1796875 C7.88065119 19.86742461 7.88065119 19.86742461 5 20 C5 23.3 5 26.6 5 30 C3.35 30 1.7 30 0 30 C0 20.1 0 10.2 0 0 Z " fill="#7C7C7B" transform="translate(102,304)"/>
<path d="M0 0 C17.05882353 0 17.05882353 0 22 4 C23.74221711 7.48443422 23.58675154 11.19887045 23 15 C21.29748281 18.07469523 19.18773492 20.40613254 16 22 C14.29297265 22.06996014 12.58331997 22.08440154 10.875 22.0625 C9.96492187 22.05347656 9.05484375 22.04445313 8.1171875 22.03515625 C7.06917969 22.01775391 7.06917969 22.01775391 6 22 C6 24.97 6 27.94 6 31 C4.02 31 2.04 31 0 31 C0 20.77 0 10.54 0 0 Z " fill="#828281" transform="translate(555,304)"/>
<path d="M0 0 C15 0 15 0 21 4 C22.65766798 5.65766798 22.21049503 7.60346405 22.25 9.875 C22.27578125 10.75929688 22.3015625 11.64359375 22.328125 12.5546875 C22 15 22 15 20.609375 16.8203125 C19 18 19 18 17 18 C19.29034467 22.02784753 21.59825758 26.03712501 24 30 C21.375 30.5625 21.375 30.5625 18 30 C16.51171875 28.03125 16.51171875 28.03125 15.0625 25.5625 C13.18536648 22.18651778 13.18536648 22.18651778 10.06640625 20.1796875 C7.93407977 19.86649346 7.93407977 19.86649346 5 20 C5 23.3 5 26.6 5 30 C3.35 30 1.7 30 0 30 C0 20.1 0 10.2 0 0 Z " fill="#7C7C7B" transform="translate(584,304)"/>
<path d="M0 0 C2.701875 -0.103125 5.40375 -0.20625 8.1875 -0.3125 C9.02949951 -0.35802002 9.87149902 -0.40354004 10.73901367 -0.45043945 C14.91855178 -0.52744271 16.55741993 -0.33408768 20.01171875 2.2734375 C22.18638757 5.25559631 22.718368 7.29733542 22.5078125 10.99609375 C21.61450664 14.52121611 19.53938401 16.46061599 17 19 C17.433125 19.55429687 17.86625 20.10859375 18.3125 20.6796875 C18.869375 21.40414063 19.42625 22.12859375 20 22.875 C20.556875 23.59429687 21.11375 24.31359375 21.6875 25.0546875 C23 27 23 27 23 29 C20.70703125 29.2421875 20.70703125 29.2421875 18 29 C16.19921875 27.3203125 16.19921875 27.3203125 14.6875 25.125 C13.91986328 24.04605469 13.91986328 24.04605469 13.13671875 22.9453125 C12 21 12 21 12 19 C9.36 19 6.72 19 4 19 C4 22.3 4 25.6 4 29 C2.68 29 1.36 29 0 29 C0 19.43 0 9.86 0 0 Z " fill="#757574" transform="translate(696,305)"/>
<path d="M0 0 C4.08375 -0.0928125 4.08375 -0.0928125 8.25 -0.1875 C9.10110352 -0.21481201 9.95220703 -0.24212402 10.82910156 -0.27026367 C14.28291648 -0.30830308 16.43751741 -0.31551758 19.5 1.40234375 C22.10635676 4.17838519 21.96202021 6.65818188 22.375 10.375 C22.00558123 13.94604806 21.4250049 16.21114226 18.9765625 18.91015625 C14.52665311 21.36376242 8.91023949 20.38821806 4 20 C4 22.97 4 25.94 4 29 C2.68 29 1.36 29 0 29 C0 19.43 0 9.86 0 0 Z " fill="#777776" transform="translate(639,305)"/>
<path d="M0 0 C4.40120114 2.20060057 6.42428498 4.78071329 9.25 8.625 C9.70890625 9.23601562 10.1678125 9.84703125 10.640625 10.4765625 C11.76751252 11.9790792 12.88472437 13.48884409 14 15 C16.04397305 12.45649094 18.07350181 9.90500238 20.0703125 7.32421875 C20.74835938 6.45410156 21.42640625 5.58398438 22.125 4.6875 C22.80820313 3.80449219 23.49140625 2.92148437 24.1953125 2.01171875 C24.79085937 1.34785156 25.38640625 0.68398438 26 0 C26.66 0 27.32 0 28 0 C28 9.9 28 19.8 28 30 C26.35 30 24.7 30 23 30 C23 24.72 23 19.44 23 14 C18.35731815 18.38538705 18.35731815 18.38538705 16.3125 21.3125 C15.879375 21.869375 15.44625 22.42625 15 23 C14.34 23 13.68 23 13 23 C10.47121327 19.79610731 8.28510237 16.38533684 6 13 C5.67 18.61 5.34 24.22 5 30 C3.35 30 1.7 30 0 30 C0 20.1 0 10.2 0 0 Z " fill="#797979" transform="translate(197,304)"/>
<path d="M0 0 C0.99 0 1.98 0 3 0 C4.80085662 3.68307996 6.58900718 7.37219233 8.375 11.0625 C8.88289062 12.10083984 9.39078125 13.13917969 9.9140625 14.20898438 C12.42639832 19.41546979 14.67319017 24.36505466 16 30 C13.6875 30.3125 13.6875 30.3125 11 30 C10.39671875 28.77796875 10.39671875 28.77796875 9.78125 27.53125 C8.17586885 24.63896506 8.17586885 24.63896506 4.64453125 24.29296875 C3.37996094 24.25816406 2.11539063 24.22335937 0.8125 24.1875 C-0.45980469 24.13980469 -1.73210938 24.09210938 -3.04296875 24.04296875 C-4.01878906 24.02878906 -4.99460937 24.01460938 -6 24 C-6.66 25.98 -7.32 27.96 -8 30 C-9.65 30 -11.3 30 -13 30 C-12.44069196 25.71078672 -11.41701488 22.30414598 -9.53125 18.41796875 C-9.04269531 17.40412109 -8.55414062 16.39027344 -8.05078125 15.34570312 C-7.28314453 13.78239258 -7.28314453 13.78239258 -6.5 12.1875 C-5.98824219 11.12595703 -5.47648438 10.06441406 -4.94921875 8.97070312 C-1.16252911 1.16252911 -1.16252911 1.16252911 0 0 Z " fill="#7B7B7A" transform="translate(675,304)"/>
<path d="M0 0 C0.99 0 1.98 0 3 0 C5.85157021 5.60170117 8.55979293 11.20450821 11 17 C12.32997737 19.88496602 13.66613565 22.76680928 15.01171875 25.64453125 C16 28 16 28 16 30 C13.6875 30.3125 13.6875 30.3125 11 30 C10.39671875 28.77796875 10.39671875 28.77796875 9.78125 27.53125 C8.17586885 24.63896506 8.17586885 24.63896506 4.64453125 24.29296875 C3.37996094 24.25816406 2.11539063 24.22335937 0.8125 24.1875 C-0.45980469 24.13980469 -1.73210938 24.09210938 -3.04296875 24.04296875 C-4.01878906 24.02878906 -4.99460937 24.01460938 -6 24 C-6.66 25.98 -7.32 27.96 -8 30 C-9.65 30 -11.3 30 -13 30 C-10.83458719 22.98578907 -8.02828258 16.52962492 -4.8125 9.9375 C-4.34908203 8.97650391 -3.88566406 8.01550781 -3.40820312 7.02539062 C-2.2769354 4.6812173 -1.14080989 2.33954029 0 0 Z " fill="#7A7A79" transform="translate(735,304)"/>
<path d="M0 0 C3 1 3 1 4.359375 3.37890625 C4.81828125 4.42949219 5.2771875 5.48007812 5.75 6.5625 C6.26304687 7.72265625 6.77609375 8.8828125 7.3046875 10.078125 C7.86983217 11.38539916 8.43493407 12.69269181 9 14 C9.64744085 15.47439639 10.29590527 16.94834366 10.9453125 18.421875 C12.64143421 22.27642641 14.32377845 26.13675567 16 30 C14.02 30 12.04 30 10 30 C9.34 28.35 8.68 26.7 8 25 C3.38 25 -1.24 25 -6 25 C-6.99 27.475 -6.99 27.475 -8 30 C-9.98 30 -11.96 30 -14 30 C-11.12765494 22.83294669 -8.03167956 15.80008703 -4.75 8.8125 C-4.22019531 7.68050171 -4.22019531 7.68050171 -3.6796875 6.52563477 C-1.12631425 1.12631425 -1.12631425 1.12631425 0 0 Z " fill="#797978" transform="translate(177,304)"/>
<path d="M0 0 C1.65 0 3.3 0 5 0 C5 9.9 5 19.8 5 30 C1.53532074 28.26766037 0.06622153 27.28966611 -2.453125 24.59375 C-3.071875 23.93246094 -3.690625 23.27117187 -4.328125 22.58984375 C-4.96234375 21.90019531 -5.5965625 21.21054687 -6.25 20.5 C-6.8996875 19.81035156 -7.549375 19.12070312 -8.21875 18.41015625 C-13 13.25725446 -13 13.25725446 -13 11 C-13.66 11 -14.32 11 -15 11 C-15 17.27 -15 23.54 -15 30 C-16.32 30 -17.64 30 -19 30 C-19 20.43 -19 10.86 -19 1 C-11.48545926 4.75727037 -6.41203875 11.70436309 -1 18 C-0.67 12.06 -0.34 6.12 0 0 Z " fill="#7A7A79" transform="translate(850,304)"/>
<path d="M0 0 C1.65 0 3.3 0 5 0 C5 9.9 5 19.8 5 30 C1.53532074 28.26766037 0.06622153 27.28966611 -2.453125 24.59375 C-3.071875 23.93246094 -3.690625 23.27117187 -4.328125 22.58984375 C-4.96234375 21.90019531 -5.5965625 21.21054687 -6.25 20.5 C-6.8996875 19.81035156 -7.549375 19.12070312 -8.21875 18.41015625 C-13 13.25725446 -13 13.25725446 -13 11 C-13.66 11 -14.32 11 -15 11 C-15 17.27 -15 23.54 -15 30 C-16.32 30 -17.64 30 -19 30 C-19 20.43 -19 10.86 -19 1 C-11.48545926 4.75727037 -6.41203875 11.70436309 -1 18 C-0.67 12.06 -0.34 6.12 0 0 Z " fill="#7A7A79" transform="translate(421,304)"/>
<path d="M0 0 C2.5 1.875 2.5 1.875 3.375 5.0625 C3.41625 5.990625 3.4575 6.91875 3.5 7.875 C1.85 7.875 0.2 7.875 -1.5 7.875 C-1.83 6.885 -2.16 5.895 -2.5 4.875 C-5.23905345 3.50547327 -7.47087332 3.74878639 -10.5 3.875 C-11.49 4.37 -11.49 4.37 -12.5 4.875 C-12.5 6.525 -12.5 8.175 -12.5 9.875 C-9.23751205 11.06859315 -6.33660029 11.89472066 -2.875 12.3125 C2.32608696 13.17934783 2.32608696 13.17934783 4.5 15.875 C5.36877828 22.71662896 5.36877828 22.71662896 2.625 26.375 C0.5 27.875 0.5 27.875 -1.5 27.875 C-1.5 28.535 -1.5 29.195 -1.5 29.875 C-11.9703842 30.94236926 -11.9703842 30.94236926 -15.6328125 28.38671875 C-19.5 23.875 -19.5 23.875 -19.5 20.875 C-17.125 20.6875 -17.125 20.6875 -14.5 20.875 C-13.84 21.865 -13.18 22.855 -12.5 23.875 C-8.32339427 24.14018132 -5.45659266 24.19386422 -1.5 22.875 C-1.17 21.225 -0.84 19.575 -0.5 17.875 C-1.38042969 17.78863281 -2.26085937 17.70226562 -3.16796875 17.61328125 C-12.59465021 16.47287251 -12.59465021 16.47287251 -16.8125 13.6875 C-19.02144321 10.00592799 -19.32893798 8.0950479 -18.5 3.875 C-13.24657145 -2.45605492 -7.52116028 -2.4175158 0 0 Z " fill="#7B7B7A" transform="translate(533.5,305.125)"/>
<path d="M0 0 C3.0625 2 3.0625 2 5 5 C5.87472721 9.6155819 5.24710026 13.86060479 3 18 C1.28546146 20.17492389 0.41056476 20.91774996 -2.33984375 21.46875 C-9.38663618 21.55352344 -9.38663618 21.55352344 -12.5625 18.6875 C-14.91477498 14.28976852 -15.42823052 10.96747403 -15 6 C-11.00386384 -0.12740877 -7.03333849 -1.04287433 0 0 Z " fill="#FAFAFA" transform="translate(814,309)"/>
<path d="M0 0 C3.30532457 1.10177486 4.01303027 1.89683433 6.1875 4.5 C9.53303861 8.46031708 12.99004337 12.29845331 16.49609375 16.1171875 C18 18 18 18 18 20 C18.66 20 19.32 20 20 20 C20 13.73 20 7.46 20 1 C21.32 1 22.64 1 24 1 C24 10.57 24 20.14 24 30 C20.02865978 28.01432989 18.36770122 26.46276834 15.5 23.1875 C14.37078125 21.90939453 14.37078125 21.90939453 13.21875 20.60546875 C11.72228553 18.84817685 10.26418934 17.05757584 8.84375 15.23828125 C7.19533963 12.92849203 7.19533963 12.92849203 5 12 C5 17.94 5 23.88 5 30 C3.35 30 1.7 30 0 30 C0 20.1 0 10.2 0 0 Z " fill="#777776" transform="translate(358,304)"/>
<path d="M0 0 C3.0625 1.3125 3.0625 1.3125 5 4 C5.90404416 9.24668484 5.89163272 13.51394547 3.125 18.125 C-0.15796977 21.02173803 -2.55793766 21.39549602 -6.9609375 21.35546875 C-10.41344041 20.75359564 -11.94190152 18.68176469 -14 16 C-15.20190901 12.39427296 -15.32670315 9.7897565 -15 6 C-10.92272599 -0.25182015 -7.0999739 -0.80792806 0 0 Z " fill="#FAFAFA" transform="translate(341,309)"/>
<path d="M0 0 C5.94 0 11.88 0 18 0 C18 1.65 18 3.3 18 5 C13.71 5 9.42 5 5 5 C5 7.64 5 10.28 5 13 C9.29 13 13.58 13 18 13 C18 14.32 18 15.64 18 17 C13.71 17 9.42 17 5 17 C5 19.97 5 22.94 5 26 C9.62 26 14.24 26 19 26 C19 27.32 19 28.64 19 30 C12.73 30 6.46 30 0 30 C0 20.1 0 10.2 0 0 Z " fill="#7C7C7B" transform="translate(459,304)"/>
<path d="M0 0 C6.27 0 12.54 0 19 0 C19 1.65 19 3.3 19 5 C14.38 5 9.76 5 5 5 C5 7.64 5 10.28 5 13 C8.96 13 12.92 13 17 13 C17 14.32 17 15.64 17 17 C13.04 17 9.08 17 5 17 C5 19.97 5 22.94 5 26 C9.29 26 13.58 26 18 26 C18 27.32 18 28.64 18 30 C12.06 30 6.12 30 0 30 C0 20.1 0 10.2 0 0 Z " fill="#787877" transform="translate(77,304)"/>
<path d="M0 0 C5.94 0 11.88 0 18 0 C18 1.65 18 3.3 18 5 C13.71 5 9.42 5 5 5 C5 7.64 5 10.28 5 13 C8.96 13 12.92 13 17 13 C17 14.32 17 15.64 17 17 C13.04 17 9.08 17 5 17 C5 19.97 5 22.94 5 26 C9.29 26 13.58 26 18 26 C18 27.32 18 28.64 18 30 C12.06 30 6.12 30 0 30 C0 20.1 0 10.2 0 0 Z " fill="#777776" transform="translate(434,304)"/>
<path d="M0 0 C5.94 0 11.88 0 18 0 C18 1.65 18 3.3 18 5 C13.71 5 9.42 5 5 5 C5 7.64 5 10.28 5 13 C8.96 13 12.92 13 17 13 C17 14.32 17 15.64 17 17 C13.04 17 9.08 17 5 17 C5 19.97 5 22.94 5 26 C9.29 26 13.58 26 18 26 C18 27.32 18 28.64 18 30 C12.06 30 6.12 30 0 30 C0 20.1 0 10.2 0 0 Z " fill="#7A7A79" transform="translate(23,304)"/>
<path d="M0 0 C10.55555556 0 10.55555556 0 14 3 C14 3.99 14 4.98 14 6 C14.66 6 15.32 6 16 6 C16.51146363 10.85890446 16.56137632 13.96660668 13.625 18 C10 21 10 21 0 21 C0 14.07 0 7.14 0 0 Z " fill="#F6F6F6" transform="translate(489,309)"/>
<path d="M0 0 C1.65 0 3.3 0 5 0 C8.05746968 5.89741187 10.79433329 11.73126302 13 18 C15.14855587 17.20301026 15.14855587 17.20301026 15.7109375 15.21484375 C15.93007813 14.46332031 16.14921875 13.71179688 16.375 12.9375 C17.8145606 8.33090608 19.75073703 4.26584356 22 0 C23.65 0 25.3 0 27 0 C24.8197371 6.87947032 22.19745965 13.45055898 19.3125 20.0625 C18.89677734 21.02349609 18.48105469 21.98449219 18.05273438 22.97460938 C17.03848513 25.31787486 16.02085998 27.65960887 15 30 C14.01 30 13.02 30 12 30 C8.92876403 24.19877649 6.51964098 18.30565065 4.24609375 12.1484375 C3.03673787 8.94217912 3.03673787 8.94217912 1.34765625 5.7890625 C0 3 0 3 0 0 Z " fill="#7B7B7A" transform="translate(45,304)"/>
<path d="M0 0 C5.61 0 11.22 0 17 0 C17 1.32 17 2.64 17 4 C12.71 4 8.42 4 4 4 C4 6.64 4 9.28 4 12 C8.29 12 12.58 12 17 12 C17 13.32 17 14.64 17 16 C12.71 16 8.42 16 4 16 C4 18.97 4 21.94 4 25 C8.62 25 13.24 25 18 25 C18 26.32 18 27.64 18 29 C12.06 29 6.12 29 0 29 C0 19.43 0 9.86 0 0 Z " fill="#737372" transform="translate(614,305)"/>
<path d="M0 0 C4.71951233 2.01310172 8.22912108 5.73710936 11 10 C12.70801838 15.40872489 12.76082833 20.85983313 10.4375 26.0625 C7.64142551 31.19529389 3.570667 35.143111 -2 37 C-8.08977939 37.84079794 -12.25147193 36.97895327 -17.27734375 33.421875 C-21.50700986 29.93072202 -23.86364203 26.37187405 -25 21 C-25.09808547 14.94049736 -23.97546493 10.72757991 -20 6 C-13.60629604 -0.03395591 -8.71575328 -0.99321644 0 0 Z M-21 10 C-23.51607108 13.82442804 -23.16148708 17.38775313 -22.546875 21.78515625 C-21.72957889 25.0952055 -20.12634893 27.37333368 -18 30 C-17.57976563 30.53109375 -17.15953125 31.0621875 -16.7265625 31.609375 C-13.01834912 34.5960808 -7.56973589 34.09470955 -3 34 C0.97239357 33.21115589 3.46825951 31.54611185 6.3125 28.625 C9.47729876 23.7019797 10.53596232 20.17709262 9.74609375 14.35546875 C8.38132191 10.04679116 5.39045153 6.90187118 2 4 C-7.36091208 0.87969597 -14.78471027 2.2917425 -21 10 Z " fill="#B8CBDD" transform="translate(855,59)"/>
<path d="M0 0 C2.1875 -0.5 2.1875 -0.5 5 0 C7.88348242 3.34328097 10 6.53746234 10 11 C10.99 11.33 11.98 11.66 13 12 C13.43570313 11.13375 13.87140625 10.2675 14.3203125 9.375 C14.91585937 8.26125 15.51140625 7.1475 16.125 6 C16.70507812 4.88625 17.28515625 3.7725 17.8828125 2.625 C20 0 20 0 23.2421875 -0.375 C24.15226562 -0.25125 25.06234375 -0.1275 26 0 C24.87874432 2.44797707 23.62146892 4.55037954 22.08984375 6.77734375 C16.80222982 14.54082772 14.74736462 20.35248625 15 30 C13.35 30 11.7 30 10 30 C10.03222656 29.23558594 10.06445312 28.47117187 10.09765625 27.68359375 C9.99592556 18.29046027 6.97559011 12.60831735 1.93359375 5.01953125 C0 2 0 2 0 0 Z " fill="#7F7F7E" transform="translate(128,304)"/>
<path d="M0 0 C7.59 0 15.18 0 23 0 C23 1.65 23 3.3 23 5 C20.03 5 17.06 5 14 5 C14 13.25 14 21.5 14 30 C12.35 30 10.7 30 9 30 C9 21.75 9 13.5 9 5 C6.03 5 3.06 5 0 5 C0 3.35 0 1.7 0 0 Z " fill="#7E7E7D" transform="translate(750,304)"/>
<path d="M0 0 C7.26 0 14.52 0 22 0 C22 1.65 22 3.3 22 5 C19.03 5 16.06 5 13 5 C13 13.25 13 21.5 13 30 C11.35 30 9.7 30 8 30 C8 21.75 8 13.5 8 5 C5.36 5 2.72 5 0 5 C0 3.35 0 1.7 0 0 Z " fill="#80807F" transform="translate(278,304)"/>
<path d="M0 0 C12.47934293 -0.37067355 12.47934293 -0.37067355 14.8984375 1.3515625 C16.4499323 3.67330294 16.35001162 5.26990939 16 8 C15.34 8.66 14.68 9.32 14 10 C13.01 10 12.02 10 11 10 C11.28875 10.55429688 11.5775 11.10859375 11.875 11.6796875 C12.431875 12.76636719 12.431875 12.76636719 13 13.875 C13.37125 14.59429687 13.7425 15.31359375 14.125 16.0546875 C15 18 15 18 15 20 C13.68 20 12.36 20 11 20 C10.75765625 19.43410156 10.5153125 18.86820313 10.265625 18.28515625 C9.93046875 17.55167969 9.5953125 16.81820312 9.25 16.0625 C8.92515625 15.33160156 8.6003125 14.60070312 8.265625 13.84765625 C6.97377317 11.52359666 6.97377317 11.52359666 3 11 C3 13.97 3 16.94 3 20 C2.01 20 1.02 20 0 20 C0 13.4 0 6.8 0 0 Z " fill="#DCE6EF" transform="translate(842,67)"/>
<path d="M0 0 C4.62 0 9.24 0 14 0 C14 1.32 14 2.64 14 4 C12.68 4 11.36 4 10 4 C10 11.59 10 19.18 10 27 C11.32 27 12.64 27 14 27 C14 27.99 14 28.98 14 30 C9.71 30 5.42 30 1 30 C1 29.01 1 28.02 1 27 C2.32 27 3.64 27 5 27 C5 19.41 5 11.82 5 4 C3.35 4 1.7 4 0 4 C0 2.68 0 1.36 0 0 Z " fill="#7B7B7A" transform="translate(260,304)"/>
<path d="M0 0 C4.29 0 8.58 0 13 0 C13 1.32 13 2.64 13 4 C11.68 4 10.36 4 9 4 C9 11.26 9 18.52 9 26 C10.32 26 11.64 26 13 26 C13 26.99 13 27.98 13 29 C8.71 29 4.42 29 0 29 C0 28.01 0 27.02 0 26 C1.32 26 2.64 26 4 26 C4 18.41 4 10.82 4 3 C2.68 3 1.36 3 0 3 C0 2.01 0 1.02 0 0 Z " fill="#7A7A79" transform="translate(304,305)"/>
<path d="M0 0 C2.0625 0.6875 2.0625 0.6875 5.0625 2.6875 C5.84754673 9.64077103 5.84754673 9.64077103 3.1875 13.1875 C1.0625 14.6875 1.0625 14.6875 -0.9375 14.6875 C-0.9375 15.3475 -0.9375 16.0075 -0.9375 16.6875 C-11.4078842 17.75486926 -11.4078842 17.75486926 -15.0703125 15.19921875 C-18.9375 10.6875 -18.9375 10.6875 -18.9375 7.6875 C-16.5625 7.5 -16.5625 7.5 -13.9375 7.6875 C-12.9475 9.1725 -12.9475 9.1725 -11.9375 10.6875 C-7.76089427 10.95268132 -4.89409266 11.00636422 -0.9375 9.6875 C-0.6075 8.0375 -0.2775 6.3875 0.0625 4.6875 C-2.4125 4.1925 -2.4125 4.1925 -4.9375 3.6875 C-4.6075 2.6975 -4.2775 1.7075 -3.9375 0.6875 C-1.9375 -0.3125 -1.9375 -0.3125 0 0 Z " fill="#898989" transform="translate(532.9375,318.3125)"/>
<path d="M0 0 C3.96 0 7.92 0 12 0 C12 0.99 12 1.98 12 3 C10.68 3 9.36 3 8 3 C8 10.59 8 18.18 8 26 C9.65 26 11.3 26 13 26 C13 26.99 13 27.98 13 29 C8.38 29 3.76 29 -1 29 C-1 28.01 -1 27.02 -1 26 C0.32 25.67 1.64 25.34 3 25 C3.33 17.74 3.66 10.48 4 3 C2.68 3 1.36 3 0 3 C0 2.01 0 1.02 0 0 Z " fill="#70706F" transform="translate(777,305)"/>
<path d="M0 0 C10.46606289 -0.36939045 10.46606289 -0.36939045 12.86328125 1.2890625 C14 3 14 3 13.875 6.5625 C13 10 13 10 10 12 C6.64683663 12.26402861 3.36941342 12.08751723 0 12 C0 8.04 0 4.08 0 0 Z " fill="#F5F5F5" transform="translate(560,309)"/>
<path d="M0 0 C1.588125 -0.061875 3.17625 -0.12375 4.8125 -0.1875 C6.15248047 -0.23970703 6.15248047 -0.23970703 7.51953125 -0.29296875 C10 0 10 0 11.8359375 1.2890625 C13 3 13 3 12.8125 6.5625 C12 10 12 10 10 12 C7.6171875 12.1953125 7.6171875 12.1953125 4.875 12.125 C2.461875 12.063125 2.461875 12.063125 0 12 C0 8.04 0 4.08 0 0 Z " fill="#F9F9F9" transform="translate(644,309)"/>
<path d="M0 0 C8.3984375 -0.1953125 8.3984375 -0.1953125 11 0 C13 2 13 2 13.3125 4.9375 C13 8 13 8 11.8046875 9.6796875 C9.37261522 11.45899579 7.79170104 11.30357277 4.8125 11.1875 C3.224375 11.125625 1.63625 11.06375 0 11 C0 7.37 0 3.74 0 0 Z " fill="#F7F7F7" transform="translate(700,309)"/>
<path d="M0 0 C1.588125 -0.061875 3.17625 -0.12375 4.8125 -0.1875 C6.15248047 -0.23970703 6.15248047 -0.23970703 7.51953125 -0.29296875 C10 0 10 0 11.80078125 1.35546875 C13.50731102 3.69569361 13.42408618 5.1727588 13 8 C11.80078125 9.64453125 11.80078125 9.64453125 10 11 C7.51953125 11.29296875 7.51953125 11.29296875 4.8125 11.1875 C3.224375 11.125625 1.63625 11.06375 0 11 C0 7.37 0 3.74 0 0 Z " fill="#F9F9F9" transform="translate(107,309)"/>
<path d="M0 0 C1.588125 -0.061875 3.17625 -0.12375 4.8125 -0.1875 C6.15248047 -0.23970703 6.15248047 -0.23970703 7.51953125 -0.29296875 C10 0 10 0 11.8359375 1.3203125 C13 3 13 3 12.8125 6.0625 C12 9 12 9 10 11 C7.6171875 11.1953125 7.6171875 11.1953125 4.875 11.125 C2.461875 11.063125 2.461875 11.063125 0 11 C0 7.37 0 3.74 0 0 Z " fill="#F9F9F9" transform="translate(589,309)"/>
<path d="M0 0 C1.65 0 3.3 0 5 0 C3.5291771 4.71331884 1.9388803 9.36892188 0.0625 13.9375 C-0.23527344 14.66839844 -0.53304687 15.39929688 -0.83984375 16.15234375 C-2.25846878 18.41163546 -3.60737316 18.92210953 -6 20 C-6.33 20.66 -6.66 21.32 -7 22 C-7.99 22 -8.98 22 -10 22 C-10.33 19.69 -10.66 17.38 -11 15 C-10.01 15.99 -9.02 16.98 -8 18 C-7.75765625 17.3709375 -7.5153125 16.741875 -7.265625 16.09375 C-5.1014715 10.56683491 -2.73215981 5.26916535 0 0 Z " fill="#848483" transform="translate(67,304)"/>
<path d="M0 0 C1.79133978 -0.05391993 3.58313899 -0.09275571 5.375 -0.125 C6.37273437 -0.14820313 7.37046875 -0.17140625 8.3984375 -0.1953125 C11 0 11 0 13 2 C13.25 4.5 13.25 4.5 13 7 C11 9 11 9 8.3984375 9.1953125 C7.40070313 9.17210937 6.40296875 9.14890625 5.375 9.125 C3.87066406 9.09792969 3.87066406 9.09792969 2.3359375 9.0703125 C1.56507813 9.04710937 0.79421875 9.02390625 0 9 C0 6.03 0 3.06 0 0 Z " fill="#F5F5F5" transform="translate(238,321)"/>
<path d="M0 0 C1.62463842 -0.05395478 3.24978541 -0.09277195 4.875 -0.125 C5.77992188 -0.14820313 6.68484375 -0.17140625 7.6171875 -0.1953125 C10 0 10 0 12 2 C11.44444444 6.55555556 11.44444444 6.55555556 10 8 C8.31391034 8.07205511 6.62499341 8.08386068 4.9375 8.0625 C4.01839844 8.05347656 3.09929687 8.04445313 2.15234375 8.03515625 C1.44207031 8.02355469 0.73179687 8.01195312 0 8 C0 5.36 0 2.72 0 0 Z " fill="#FAFAFA" transform="translate(238,309)"/>
<path d="M0 0 C2.15625 0.37890625 2.15625 0.37890625 4 1 C3.16855469 1.67095703 3.16855469 1.67095703 2.3203125 2.35546875 C-3.29130366 6.72609624 -3.29130366 6.72609624 -6 13 C-6.06048883 19.38762078 -4.49175747 23.70604512 -1 29 C-1.99 29 -2.98 29 -4 29 C-7.70780034 24.85598785 -8.81524466 21.05029286 -9.1640625 15.52734375 C-8.79992609 9.91790911 -5.96141356 6.17773161 -2.5 1.9375 C-1.2625 0.9784375 -1.2625 0.9784375 0 0 Z " fill="#D1DEEB" transform="translate(839,61)"/>
<path d="M0 0 C3 1 3 1 4.6875 4.375 C6 8 6 8 6 11 C2.7 11 -0.6 11 -4 11 C-4 10.01 -4 9.02 -4 8 C-3.34 8 -2.68 8 -2 8 C-1.855625 6.865625 -1.71125 5.73125 -1.5625 4.5625 C-1 1 -1 1 0 0 Z " fill="#E8E8E8" transform="translate(177,313)"/>
<path d="M0 0 C2.64 0 5.28 0 8 0 C8 0.33 8 0.66 8 1 C6.35 1 4.7 1 3 1 C3 3.97 3 6.94 3 10 C4.65 10 6.3 10 8 10 C8 10.33 8 10.66 8 11 C6.35 11 4.7 11 3 11 C3 13.97 3 16.94 3 20 C2.01 20 1.02 20 0 20 C0 13.4 0 6.8 0 0 Z " fill="#F7F9FB" transform="translate(842,67)"/>
<path d="M0 0 C2.96052484 3.36423277 3.92289822 6.69159287 5 11 C1.7 11 -1.6 11 -5 11 C-3.77472971 6.94718288 -2.30119506 3.55639236 0 0 Z " fill="#F3F3F3" transform="translate(676,313)"/>
<path d="M0 0 C0.66 0 1.32 0 2 0 C5 6.5 5 6.5 5 11 C2.03 11 -0.94 11 -4 11 C-3.5247412 9.35303396 -3.04468109 7.70745272 -2.5625 6.0625 C-2.29566406 5.14597656 -2.02882813 4.22945313 -1.75390625 3.28515625 C-1 1 -1 1 0 0 Z " fill="#EFEFEF" transform="translate(736,313)"/>
<path d="M0 0 C2.25 -0.25 2.25 -0.25 5 0 C5.61875 0.639375 6.2375 1.27875 6.875 1.9375 C9.73634361 4.71468645 12.11314825 4.7010114 16 5 C16 5.99 16 6.98 16 8 C6.07794677 8.58365019 6.07794677 8.58365019 2 5 C0.6875 2.3125 0.6875 2.3125 0 0 Z " fill="#787877" transform="translate(514,326)"/>
<path d="M0 0 C6.75 -0.125 6.75 -0.125 9 1 C9 2.65 9 4.3 9 6 C6.04335481 7.4783226 3.25770263 7.06032783 0 7 C0 4.69 0 2.38 0 0 Z " fill="#115890" transform="translate(845,69)"/>
<path d="M0 0 C2.31 0 4.62 0 7 0 C7 0.99 7 1.98 7 3 C7.66 3 8.32 3 9 3 C12 8.75 12 8.75 12 11 C10.68 11 9.36 11 8 11 C7.75765625 10.45730469 7.5153125 9.91460937 7.265625 9.35546875 C4.69107324 3.80914453 4.69107324 3.80914453 0 0 Z " fill="#DFE8F0" transform="translate(845,76)"/>
<path d="M0 0 C0.66 0 1.32 0 2 0 C2 9.9 2 19.8 2 30 C1.67 30 1.34 30 1 30 C0.67 21.42 0.34 12.84 0 4 C-0.99 4 -1.98 4 -3 4 C-1.625 2 -1.625 2 0 0 Z " fill="#818180" transform="translate(223,304)"/>
<path d="M0 0 C4.95 0.99 9.9 1.98 15 3 C15.33 3.99 15.66 4.98 16 6 C9.34454208 6.54330269 5.54165256 5.77304004 0 2 C0 1.34 0 0.68 0 0 Z " fill="#A7BDD3" transform="translate(837,90)"/>
<path d="M0 0 C-2.40615652 2.65506927 -4.17959767 3.92164697 -7.78125 4.265625 C-10.53033855 4.25145444 -13.25655321 4.17296687 -16 4 C-16 3.67 -16 3.34 -16 3 C-13.69 3 -11.38 3 -9 3 C-9 2.34 -9 1.68 -9 1 C-3.375 -1.125 -3.375 -1.125 0 0 Z " fill="#C7D6E5" transform="translate(861,91)"/>
<path d="M0 0 C0.33 0 0.66 0 1 0 C1.125 2.375 1.125 2.375 1 5 C0.34 5.66 -0.32 6.32 -1 7 C-1.99 7 -2.98 7 -4 7 C-4.33 7.66 -4.66 8.32 -5 9 C-5 7.68 -5 6.36 -5 5 C-4.34 5 -3.68 5 -3 5 C-2.67 4.01 -2.34 3.02 -2 2 C-2 2.66 -2 3.32 -2 4 C-1.34 4 -0.68 4 0 4 C0 2.68 0 1.36 0 0 Z " fill="#CBD9E6" transform="translate(857,70)"/>
<path d="M0 0 C3.125 -0.1875 3.125 -0.1875 6 0 C6 0.99 6 1.98 6 3 C3.36 3 0.72 3 -2 3 C-1.34 2.01 -0.68 1.02 0 0 Z " fill="#6E6E6D" transform="translate(524,331)"/>
<path d="M0 0 C1.32 0.33 2.64 0.66 4 1 C1.69 2.65 -0.62 4.3 -3 6 C-2 2 -2 2 0 0 Z " fill="#C8D7E7" transform="translate(839,61)"/>
</svg>
