<?xml version="1.0" encoding="UTF-8"?>
<svg version="1.1" xmlns="http://www.w3.org/2000/svg" width="638" height="198">
<path d="M0 0 C0.99 0 1.98 0 3 0 C3 0.66 3 1.32 3 2 C3.57234375 2.268125 4.1446875 2.53625 4.734375 2.8125 C7.07884634 4.04132636 9.12404938 5.42522176 11.25 7 C11.95640625 7.515625 12.6628125 8.03125 13.390625 8.5625 C14.18726563 9.2740625 14.18726563 9.2740625 15 10 C15 10.66 15 11.32 15 12 C16.0828125 12.4021875 16.0828125 12.4021875 17.1875 12.8125 C20 14 20 14 22.5 15.625 C25.28546368 17.15700502 26.87134719 17.34762809 30 17 C30.495 16.505 30.495 16.505 31 16 C33.33297433 15.95907063 35.66705225 15.95758277 38 16 C37.34 18.64 36.68 21.28 36 24 C37.32 24 38.64 24 40 24 C40.185625 22.7934375 40.185625 22.7934375 40.375 21.5625 C40.684375 20.2940625 40.684375 20.2940625 41 19 C41.99 18.505 41.99 18.505 43 18 C42.67 17.67 42.34 17.34 42 17 C41.95936168 15.33382885 41.957279 13.66611905 42 12 C42.66 12 43.32 12 44 12 C44.33 11.01 44.66 10.02 45 9 C47.875 8.8125 47.875 8.8125 51 9 C53 12 53 12 52.625 14.6875 C52.41875 15.450625 52.2125 16.21375 52 17 C50.68 17.33 49.36 17.66 48 18 C45.77836498 27.63446318 45.77836498 27.63446318 48.13183594 36.80419922 C51.11427582 40.01311629 54.61792742 42.44907495 58.27001953 44.83789062 C61.0479825 46.70397922 63.52019341 48.75043421 66 51 C66 51.66 66 52.32 66 53 C62.56049636 52.38801624 60.48435515 51.07941153 57.75 48.9375 C57.04359375 48.38964844 56.3371875 47.84179688 55.609375 47.27734375 C54.81273437 46.64505859 54.81273437 46.64505859 54 46 C53.42163385 53.3008748 53.42163385 53.3008748 55.6875 60.0625 C58.06369756 62.05336823 60.04633654 63.09749172 63 64 C62.67 64.66 62.34 65.32 62 66 C60.700625 65.979375 59.40125 65.95875 58.0625 65.9375 C56.70834367 65.91600546 55.35243917 65.92851801 54 66 C53.67 66.33 53.34 66.66 53 67 C49.37940768 67.29356154 47.12296038 66.85064319 44 65 C43.5875 65.495 43.175 65.99 42.75 66.5 C41 68 41 68 37 68 C36.67 67.34 36.34 66.68 36 66 C30.95487544 66.25765569 30.95487544 66.25765569 27 69.0625 C25 71 25 71 21.25 71.25 C20.1775 71.1675 19.105 71.085 18 71 C18.48469363 66.72588349 19.541098 65.04944886 22.875 62.375 C26.61964601 59.38194913 26.61964601 59.38194913 30 56 C30 55.34 30 54.68 30 54 C28.35 53.67 26.7 53.34 25 53 C25 52.34 25 51.68 25 51 C21.72724974 51 19.153368 51.29925156 16 52 C14.53329887 46.77487721 13.77422598 42.4185766 14 37 C15.32 36.67 16.64 36.34 18 36 C18 35.34 18 34.68 18 34 C16.02 34.33 14.04 34.66 12 35 C12 36.98 12 38.96 12 41 C9.69 41 7.38 41 5 41 C5 41.99 5 42.98 5 44 C5.99 44.66 6.98 45.32 8 46 C8.5625 48.3125 8.5625 48.3125 8 51 C3.73254223 55.5875171 0.08519712 56.84591089 -6 58 C-5.67 56.02 -5.34 54.04 -5 52 C-5.53109375 52.28875 -6.0621875 52.5775 -6.609375 52.875 C-7.31578125 53.24625 -8.0221875 53.6175 -8.75 54 C-9.44609375 54.37125 -10.1421875 54.7425 -10.859375 55.125 C-13 56 -13 56 -17 56 C-17 55.34 -17 54.68 -17 54 C-18.32 54 -19.64 54 -21 54 C-21 54.66 -21 55.32 -21 56 C-22.093125 56.12375 -23.18625 56.2475 -24.3125 56.375 C-26.29563175 56.81586969 -26.29563175 56.81586969 -28 58 C-29.56599363 61.21558122 -30.26565505 64.51468588 -31 68 C-31.33 68.99 -31.66 69.98 -32 71 C-33.2065625 70.7215625 -33.2065625 70.7215625 -34.4375 70.4375 C-35.283125 70.293125 -36.12875 70.14875 -37 70 C-37.495 70.495 -37.495 70.495 -38 71 C-39.99958364 71.04080783 -42.00045254 71.04254356 -44 71 C-43.343621 66.51474352 -42.29925791 62.33085971 -41 58 C-42.95894361 58.11306697 -42.95894361 58.11306697 -45 59 C-45.33 59.825 -45.66 60.65 -46 61.5 C-46.33 62.325 -46.66 63.15 -47 64 C-49.125 64.8125 -49.125 64.8125 -51 65 C-51.33 64.34 -51.66 63.68 -52 63 C-51.67 62.34 -51.34 61.68 -51 61 C-51.66 61 -52.32 61 -53 61 C-52.505 59.63875 -52.505 59.63875 -52 58.25 C-50.80394277 54.92954193 -50.80394277 54.92954193 -51 51 C-48.70581297 46.54608379 -46.17220736 43.51150867 -41.5625 41.5 C-37.97447483 40.99641752 -34.61900817 40.93537485 -31 41 C-28.66175408 40.70307988 -26.32622311 40.37979153 -24 40 C-24 39.01 -24 38.02 -24 37 C-22.68 37 -21.36 37 -20 37 C-20 36.01 -20 35.02 -20 34 C-29.57 33.67 -39.14 33.34 -49 33 C-49 32.34 -49 31.68 -49 31 C-39.76 31 -30.52 31 -21 31 C-20.67 29.35 -20.34 27.7 -20 26 C-19.66666667 24.33333333 -19.33333333 22.66666667 -19 21 C-19.556875 21.350625 -20.11375 21.70125 -20.6875 22.0625 C-23.64403708 23.26109611 -25.04049744 23.16822469 -28 22 C-29.59642719 19.31509973 -30.12740282 17.78565071 -29.625 14.6875 C-29.315625 13.8521875 -29.315625 13.8521875 -29 13 C-28.01 13 -27.02 13 -26 13 C-26 13.66 -26 14.32 -26 15 C-22.7 15.33 -19.4 15.66 -16 16 C-16 13.36 -16 10.72 -16 8 C-14.68 8 -13.36 8 -12 8 C-12.04125 9.19625 -12.0825 10.3925 -12.125 11.625 C-12.14027407 14.52707416 -11.92764964 16.20428336 -10.9375 19 C-9.67337139 23.04521156 -10.28375691 25.84579007 -11 30 C-7.6706757 29.07088624 -5.35742316 28.31770948 -2.75 26 C1.82821113 22.67039191 7.40572683 22 13 22 C12.505 24.475 12.505 24.475 12 27 C11.01 27.33 10.02 27.66 9 28 C9.99 28 10.98 28 12 28 C12 28.99 12 29.98 12 31 C14.64 31 17.28 31 20 31 C19.525625 30.05125 19.05125 29.1025 18.5625 28.125 C17.70833333 26.41666667 16.85416667 24.70833333 16 23 C16.33 22.34 16.66 21.68 17 21 C16.34 21 15.68 21 15 21 C15.875 17.125 15.875 17.125 17 16 C16.01 15.505 16.01 15.505 15 15 C15 14.34 15 13.68 15 13 C14.319375 12.79375 13.63875 12.5875 12.9375 12.375 C9.08360625 10.57104973 5.92212236 8.0989655 3 5 C3 4.34 3 3.68 3 3 C2.01 2.67 1.02 2.34 0 2 C0 1.34 0 0.68 0 0 Z M28 20 C28.33 20.66 28.66 21.32 29 22 C29.66 22 30.32 22 31 22 C31 21.34 31 20.68 31 20 C30.01 20 29.02 20 28 20 Z M22 25 C22 28 22 28 22 28 Z M8 29 C9 31 9 31 9 31 Z M30 30 C34 31 34 31 34 31 Z M42 31 C43 33 43 33 43 33 Z M-14 35 C-13.67 36.65 -13.34 38.3 -13 40 C-12.67 40 -12.34 40 -12 40 C-12 38.35 -12 36.7 -12 35 C-12.66 35 -13.32 35 -14 35 Z M46 39 C46 39.66 46 40.32 46 41 C46.66 40.67 47.32 40.34 48 40 C47.34 39.67 46.68 39.34 46 39 Z M38 41 C36.68 41.99 35.36 42.98 34 44 C34.33 44.99 34.66 45.98 35 47 C36.65 45.35 38.3 43.7 40 42 C39.34 41.67 38.68 41.34 38 41 Z M-19 42 C-19 42.99 -19 43.98 -19 45 C-18.34 45 -17.68 45 -17 45 C-17.33 44.01 -17.66 43.02 -18 42 C-18.33 42 -18.66 42 -19 42 Z M-27 43 C-27.33 43.66 -27.66 44.32 -28 45 C-26.35 45 -24.7 45 -23 45 C-23.33 44.34 -23.66 43.68 -24 43 C-24.99 43 -25.98 43 -27 43 Z M-35 44 C-35.66 45.65 -36.32 47.3 -37 49 C-36.34 49 -35.68 49 -35 49 C-34.67 47.35 -34.34 45.7 -34 44 C-34.33 44 -34.66 44 -35 44 Z M19 44 C19.66 45.32 20.32 46.64 21 48 C21.99 47.34 22.98 46.68 24 46 C21.525 45.01 21.525 45.01 19 44 Z M39 44 C38.06934867 46.60582371 37.85082593 47.64198224 38.9375 50.25 C39.288125 50.8275 39.63875 51.405 40 52 C42.12802546 49.69433317 42.12802546 49.69433317 44 47 C43.67 46.01 43.34 45.02 43 44 C41.68 44 40.36 44 39 44 Z M-44 48 C-44.33 49.98 -44.66 51.96 -45 54 C-44.34 53.34 -43.68 52.68 -43 52 C-43.3185177 49.89179203 -43.3185177 49.89179203 -44 48 Z M-16 49 C-15 51 -15 51 -15 51 Z M29 49 C30 52 30 52 30 52 Z M-30 50 C-30 53 -30 53 -30 53 Z M-3 50 C-3.66 50.66 -4.32 51.32 -5 52 C-3.35 51.67 -1.7 51.34 0 51 C-0.99 50.67 -1.98 50.34 -3 50 Z M44 53 C44.33 55.64 44.66 58.28 45 61 C45.33 61 45.66 61 46 61 C46.16681109 58.08347826 46.16681109 58.08347826 46 55 C45.34 54.34 44.68 53.68 44 53 Z M49 54 C50 57 50 57 50 57 Z M-36 58 C-35.67 58.66 -35.34 59.32 -35 60 C-34.67 59.34 -34.34 58.68 -34 58 C-34.66 58 -35.32 58 -36 58 Z M37 58 C38.32 59.32 39.64 60.64 41 62 C41.66 61.34 42.32 60.68 43 60 C40.18490007 57.7226499 40.18490007 57.7226499 37 58 Z M-37 60 C-36 62 -36 62 -36 62 Z M-36 66 C-35 68 -35 68 -35 68 Z " fill="#030A09" transform="translate(315,0)"/>
<path d="M0 0 C2.1415118 4.37613281 2.3973309 8.16810771 1.4375 12.9375 C-0.98068774 17.83775214 -4.34556086 20.13746626 -9.4375 21.875 C-10.80635357 22.25222532 -12.17976241 22.61486123 -13.5625 22.9375 C-13.06621094 23.4221875 -12.56992188 23.906875 -12.05859375 24.40625 C-8.55867345 27.85968179 -5.15065286 31.33898058 -1.9375 35.0625 C-0.8133419 36.35489945 0.31162144 37.64659905 1.4375 38.9375 C1.95183594 39.53175781 2.46617187 40.12601563 2.99609375 40.73828125 C6.27872544 44.31080768 8.56293726 45.70537796 13.4375 45.9375 C13.4375 46.9275 13.4375 47.9175 13.4375 48.9375 C8.69404756 49.98997635 4.0852104 50.57643529 -0.5625 48.9375 C-5.83382592 45.15045835 -9.85574617 39.87834178 -13.93701172 34.88671875 C-15.98957453 32.42536978 -18.20464387 30.17213243 -20.5 27.9375 C-21.510625 26.9475 -22.52125 25.9575 -23.5625 24.9375 C-23.5625 31.8675 -23.5625 38.7975 -23.5625 45.9375 C-21.5825 45.9375 -19.6025 45.9375 -17.5625 45.9375 C-17.5625 46.9275 -17.5625 47.9175 -17.5625 48.9375 C-24.8225 48.9375 -32.0825 48.9375 -39.5625 48.9375 C-39.5625 47.9475 -39.5625 46.9575 -39.5625 45.9375 C-37.2525 45.9375 -34.9425 45.9375 -32.5625 45.9375 C-32.5625 30.4275 -32.5625 14.9175 -32.5625 -1.0625 C-35.5325 -1.5575 -35.5325 -1.5575 -38.5625 -2.0625 C-38.5625 -2.7225 -38.5625 -3.3825 -38.5625 -4.0625 C-35.75016245 -4.2323931 -32.93768151 -4.39848232 -30.125 -4.5625 C-29.34189453 -4.61019531 -28.55878906 -4.65789062 -27.75195312 -4.70703125 C-7.31127353 -5.88468357 -7.31127353 -5.88468357 0 0 Z M-23.5625 -1.0625 C-24.0575 9.3325 -24.0575 9.3325 -24.5625 19.9375 C-18.16210047 19.9375 -13.94177166 19.67462977 -8.91796875 15.60546875 C-6.41392003 12.52411773 -6.31866762 8.79817928 -6.5625 4.9375 C-8.32753314 2.01606583 -9.52097635 0.45826183 -12.5625 -1.0625 C-16.23265275 -1.2002685 -19.88861348 -1.10521961 -23.5625 -1.0625 Z " fill="#030A09" transform="translate(244.5625,112.0625)"/>
<path d="M0 0 C1.18408447 -0.0009668 1.18408447 -0.0009668 2.39208984 -0.00195312 C9.2794319 0.05937921 15.71592358 0.92534625 22.5 2.1875 C22.5 6.8075 22.5 11.4275 22.5 16.1875 C21.51 16.1875 20.52 16.1875 19.5 16.1875 C19.314375 15.094375 19.12875 14.00125 18.9375 12.875 C17.84363216 8.92136558 17.84363216 8.92136558 14.1875 7.3125 C4.9444104 4.49257436 -6.01248299 3.08886008 -15.0625 7.1875 C-22.97355337 11.91051694 -26.39914928 18.71719194 -28.8046875 27.4296875 C-31.09026781 39.78209342 -30.85752994 53.7375224 -23.95703125 64.62109375 C-19.60291051 70.0512901 -14.55619333 73.00032147 -7.9375 74.9375 C-1.97606439 75.54892929 3.00572716 75.01588827 8.75 73.3125 C9.95140625 72.96445313 11.1528125 72.61640625 12.390625 72.2578125 C15.61218118 71.29592759 15.61218118 71.29592759 18.5 69.1875 C19.49 69.1875 20.48 69.1875 21.5 69.1875 C20.56316327 72.59210178 19.98314799 73.90108293 16.890625 75.734375 C15.33601563 76.32992187 15.33601563 76.32992187 13.75 76.9375 C12.72390625 77.34484375 11.6978125 77.7521875 10.640625 78.171875 C-0.4687465 81.76445782 -11.89684685 81.07519885 -22.5 76.1875 C-32.42015286 69.43909669 -37.42939744 60.90608125 -39.99609375 49.36328125 C-41.99619877 36.75796823 -40.18014383 25.24613787 -33.22265625 14.4765625 C-24.89740635 3.41398554 -13.39992543 -0.01129128 0 0 Z " fill="#030A09" transform="translate(322.5,81.8125)"/>
<path d="M0 0 C4.3049777 -0.07451364 8.60960734 -0.12877223 12.91503906 -0.16479492 C14.37767075 -0.17982196 15.84025782 -0.20024955 17.30273438 -0.22631836 C19.4128728 -0.26297267 21.52241226 -0.27978676 23.6328125 -0.29296875 C24.90012207 -0.3086792 26.16743164 -0.32438965 27.47314453 -0.34057617 C31.34346353 0.03316708 33.71296596 0.95413696 37 3 C39.95455268 7.33334393 40.5660929 10.81081509 40 16 C38.08827914 20.56688872 35.18111999 22.491328 31 25 C31.69867188 25.31453125 32.39734375 25.6290625 33.1171875 25.953125 C34.02726562 26.38109375 34.93734375 26.8090625 35.875 27.25 C37.23238281 27.87648437 37.23238281 27.87648437 38.6171875 28.515625 C41.272478 30.1697404 42.02573318 31.06631387 43 34 C43.57865799 38.2009067 43.46725091 41.8933531 41.8125 45.8125 C37.92079489 50.50938547 34.01049684 52.9957383 28 54 C23.35092224 54.23703336 18.71601988 54.188446 14.0625 54.125 C12.17821289 54.11146484 12.17821289 54.11146484 10.25585938 54.09765625 C7.17037478 54.07419249 4.08528795 54.04136201 1 54 C1 53.01 1 52.02 1 51 C2.98 51 4.96 51 7 51 C7 35.16 7 19.32 7 3 C4.69 3 2.38 3 0 3 C0 2.01 0 1.02 0 0 Z M15 4 C14.91314397 5.56172745 14.89297781 7.12729344 14.90234375 8.69140625 C14.90556641 9.63564453 14.90878906 10.57988281 14.91210938 11.55273438 C14.92048828 12.54595703 14.92886719 13.53917969 14.9375 14.5625 C14.94201172 15.55958984 14.94652344 16.55667969 14.95117188 17.58398438 C14.96299993 20.05604849 14.97948151 22.52799518 15 25 C16.43960245 24.88036284 17.87825268 24.74923182 19.31640625 24.61328125 C20.11763916 24.54149658 20.91887207 24.46971191 21.74438477 24.39575195 C25.03157495 23.81900823 26.740709 22.39621773 29 20 C31.28582634 16.73453379 31.40058025 13.92568648 31 10 C29.33237678 6.50593231 28.25993978 5.17329319 25 3 C22.74877503 2.72168528 22.74877503 2.72168528 20.375 2.8125 C19.57835937 2.81894531 18.78171875 2.82539062 17.9609375 2.83203125 C15.99710266 2.78817102 15.99710266 2.78817102 15 4 Z M15 28 C14.9131671 31.458176 14.85966718 34.91607344 14.8125 38.375 C14.78736328 39.35984375 14.76222656 40.3446875 14.73632812 41.359375 C14.72666016 42.30039063 14.71699219 43.24140625 14.70703125 44.2109375 C14.6913208 45.08024902 14.67561035 45.94956055 14.65942383 46.84521484 C14.77181396 47.55629395 14.8842041 48.26737305 15 49 C18.75456567 51.50304378 20.54745934 51.45280074 25 51 C28.64450372 49.17774814 30.59278629 47.57798075 32.9375 44.25 C34.28191186 40.13768138 34.48215322 37.092764 33 33 C29.54166881 28.83226754 27.09850698 27.75195957 21.75 27.125 C18.23566474 26.84140951 18.23566474 26.84140951 15 28 Z " fill="#030A09" transform="translate(105,108)"/>
<path d="M0 0 C15.51 0 31.02 0 47 0 C47 4.29 47 8.58 47 13 C46.01 13 45.02 13 44 13 C43.34 11.02 42.68 9.04 42 7 C33.59070492 4.96198261 25.8118326 4.58745551 17 4 C16.67 14.56 16.34 25.12 16 36 C22.27 35.67 28.54 35.34 35 35 C35.33 32.69 35.66 30.38 36 28 C36.99 28 37.98 28 39 28 C39 34.93 39 41.86 39 49 C38.01 49 37.02 49 36 49 C35.505 45.535 35.505 45.535 35 42 C28.73 41.34 22.46 40.68 16 40 C16 50.89 16 61.78 16 73 C18.97 73 21.94 73 25 73 C25 74.32 25 75.64 25 77 C16.75 77 8.5 77 0 77 C0 75.68 0 74.36 0 73 C2.31 73 4.62 73 7 73 C7.33 50.23 7.66 27.46 8 4 C5.36 4 2.72 4 0 4 C0 2.68 0 1.36 0 0 Z " fill="#030A09" transform="translate(0,85)"/>
<path d="M0 0 C1.98 0 3.96 0 6 0 C6.37769531 1.14210938 6.75539063 2.28421875 7.14453125 3.4609375 C12.02817126 17.94356072 17.77350228 32.04270648 24 46 C24.32444092 46.75539062 24.64888184 47.51078125 24.9831543 48.2890625 C25.91351064 50.30001233 25.91351064 50.30001233 28.625 50.75 C29.40875 50.8325 30.1925 50.915 31 51 C31 51.99 31 52.98 31 54 C24.4 54 17.8 54 11 54 C11 53.01 11 52.02 11 51 C12.65 51 14.3 51 16 51 C14.02 45.72 12.04 40.44 10 35 C3.07 34.67 -3.86 34.34 -11 34 C-11.99 36.97 -12.98 39.94 -14 43 C-14.96788417 45.68060101 -15.98331484 48.33725314 -17 51 C-15.02 51 -13.04 51 -11 51 C-11 51.99 -11 52.98 -11 54 C-17.6 54 -24.2 54 -31 54 C-31 53.01 -31 52.02 -31 51 C-29.02 51 -27.04 51 -25 51 C-24.60385498 49.94752075 -24.60385498 49.94752075 -24.19970703 48.8737793 C-22.9145156 45.79523059 -21.41075896 42.94345759 -19.8046875 40.01953125 C-19.1744165 38.86291992 -18.54414551 37.70630859 -17.89477539 36.51464844 C-17.3990654 35.60676575 -17.3990654 35.60676575 -16.89334106 34.68054199 C-10.71347843 23.34421931 -4.94284245 11.93862265 0 0 Z M0 10 C-1.50626117 13.12202006 -3.00393243 16.24808399 -4.5 19.375 C-4.92925781 20.26445313 -5.35851562 21.15390625 -5.80078125 22.0703125 C-6.20683594 22.92109375 -6.61289062 23.771875 -7.03125 24.6484375 C-7.40830078 25.43395996 -7.78535156 26.21948242 -8.17382812 27.02880859 C-9.12884831 28.9512028 -9.12884831 28.9512028 -9 31 C-3.06 31 2.88 31 9 31 C8.071875 28.2775 7.14375 25.555 6.1875 22.75 C5.90156982 21.89889648 5.61563965 21.04779297 5.32104492 20.17089844 C5.08490479 19.4905957 4.84876465 18.81029297 4.60546875 18.109375 C4.36981201 17.41811523 4.13415527 16.72685547 3.89135742 16.01464844 C2.87921933 13.72701121 1.56186485 11.94517966 0 10 Z " fill="#030A09" transform="translate(376,107)"/>
<path d="M0 0 C1.65 0 3.3 0 5 0 C5.37769531 1.14210938 5.75539062 2.28421875 6.14453125 3.4609375 C11.02817126 17.94356072 16.77350228 32.04270648 23 46 C23.32444092 46.74507812 23.64888184 47.49015625 23.9831543 48.2578125 C25.44740532 50.76655087 27.30910046 51.15024225 30 52 C30 52.66 30 53.32 30 54 C23.4 54 16.8 54 10 54 C10 53.34 10 52.68 10 52 C12.475 51.505 12.475 51.505 15 51 C14.45859375 49.64455078 14.45859375 49.64455078 13.90625 48.26171875 C13.4421875 47.08222656 12.978125 45.90273437 12.5 44.6875 C12.0359375 43.51574219 11.571875 42.34398437 11.09375 41.13671875 C10 38 10 38 10 35 C2.74 35 -4.52 35 -12 35 C-12.99 37.97 -13.98 40.94 -15 44 C-15.97381959 46.34438048 -16.96440702 48.68224427 -18 51 C-16.02 51.33 -14.04 51.66 -12 52 C-12 52.66 -12 53.32 -12 54 C-18.6 54 -25.2 54 -32 54 C-32 53.34 -32 52.68 -32 52 C-31.1028125 51.82210937 -30.205625 51.64421875 -29.28125 51.4609375 C-24.91937824 49.51886602 -23.57271858 46.70667501 -21.5 42.625 C-21.09201172 41.85784668 -20.68402344 41.09069336 -20.26367188 40.30029297 C-18.81428445 37.54720397 -17.40423555 34.77639465 -16 32 C-15.40960938 30.83597656 -14.81921875 29.67195313 -14.2109375 28.47265625 C-10.55324462 21.24701747 -6.93967544 14.00017929 -3.35351562 6.73876953 C-2.24183981 4.48935047 -1.12452609 2.24301355 0 0 Z M-1 10 C-2.50605402 13.28893003 -4.00380532 16.58157446 -5.5 19.875 C-5.92925781 20.81214844 -6.35851562 21.74929687 -6.80078125 22.71484375 C-7.20683594 23.61074219 -7.61289062 24.50664062 -8.03125 25.4296875 C-8.40830078 26.25710449 -8.78535156 27.08452148 -9.17382812 27.93701172 C-10.12392316 29.93906349 -10.12392316 29.93906349 -10 32 C-8.12508307 32.02730462 -6.25004775 32.04653244 -4.375 32.0625 C-3.33085938 32.07410156 -2.28671875 32.08570313 -1.2109375 32.09765625 C1.94903033 32.00155017 4.89815162 31.59149361 8 31 C7.04235345 28.43724147 6.0839064 25.87478711 5.125 23.3125 C4.85558594 22.59126953 4.58617187 21.87003906 4.30859375 21.12695312 C2.91331397 17.40053517 1.49797083 13.68675345 0 10 C-0.33 10 -0.66 10 -1 10 Z " fill="#030A09" transform="translate(70,107)"/>
<path d="M0 0 C12.21 0 24.42 0 37 0 C37 3.63 37 7.26 37 11 C36.01 11 35.02 11 34 11 C33.505 8.525 33.505 8.525 33 6 C27.01270113 4.88482498 21.03748977 3.80499864 15 3 C15.01160156 3.66644531 15.02320313 4.33289063 15.03515625 5.01953125 C15.10108243 11.75341967 14.69591018 18.30186448 14 25 C18.62 25 23.24 25 28 25 C28.33 23.35 28.66 21.7 29 20 C29.99 20.33 30.98 20.66 32 21 C31.67 25.62 31.34 30.24 31 35 C30.01 35 29.02 35 28 35 C27.67 33.68 27.34 32.36 27 31 C22.71 30.34 18.42 29.68 14 29 C14.33 36.26 14.66 43.52 15 51 C21.93 50.34 28.86 49.68 36 49 C36 47.35 36 45.7 36 44 C36.99 44 37.98 44 39 44 C39 47.3 39 50.6 39 54 C25.47 54 11.94 54 -2 54 C-2 53.01 -2 52.02 -2 51 C0.64 51 3.28 51 6 51 C6 35.16 6 19.32 6 3 C3.69 3 1.38 3 -1 3 C-0.67 2.01 -0.34 1.02 0 0 Z " fill="#030A09" transform="translate(507,107)"/>
<path d="M0 0 C12.54 0 25.08 0 38 0 C38 3.3 38 6.6 38 10 C37.01 10 36.02 10 35 10 C34.7525 9.195625 34.505 8.39125 34.25 7.5625 C33.31159578 4.90817912 33.31159578 4.90817912 31.34375 4.34375 C28.2901813 3.89589326 25.335213 3.90664787 22.25 3.9375 C19.15625 3.9684375 19.15625 3.9684375 16 4 C15.67 10.93 15.34 17.86 15 25 C19.62 24.67 24.24 24.34 29 24 C29 22.35 29 20.7 29 19 C29.99 19 30.98 19 32 19 C32 23.95 32 28.9 32 34 C31.01 34 30.02 34 29 34 C28.505 31.525 28.505 31.525 28 29 C23.71 28.67 19.42 28.34 15 28 C15 35.26 15 42.52 15 50 C18.09375 49.690625 21.1875 49.38125 24.375 49.0625 C25.34872559 48.96718994 26.32245117 48.87187988 27.32568359 48.77368164 C28.09219238 48.69496826 28.85870117 48.61625488 29.6484375 48.53515625 C30.43395996 48.456604 31.21948242 48.37805176 32.02880859 48.29711914 C34.07134803 48.09303702 34.07134803 48.09303702 36 47 C36.65213292 44.97536745 36.65213292 44.97536745 37 43 C37.99 43 38.98 43 40 43 C40 46.3 40 49.6 40 53 C26.47 53 12.94 53 -1 53 C-1 52.01 -1 51.02 -1 50 C1.64 50 4.28 50 7 50 C7 34.49 7 18.98 7 3 C4.69 2.67 2.38 2.34 0 2 C0 1.34 0 0.68 0 0 Z " fill="#030A09" transform="translate(157,108)"/>
<path d="M0 0 C0 3.3 0 6.6 0 10 C-1.32 10 -2.64 10 -4 10 C-4.12375 9.195625 -4.2475 8.39125 -4.375 7.5625 C-4.58125 6.716875 -4.7875 5.87125 -5 5 C-8.70788386 3.14605807 -12.95291317 3.54820257 -17 4 C-20.6416011 5.93227814 -21.68788043 7.02202535 -22.9375 10.9375 C-23.00999471 14.48974071 -23.01936876 16.04861489 -21 19 C-17.30571367 21.22973629 -13.27268667 22.59920917 -9.171875 23.890625 C-2.80119457 25.94456022 1.66210047 27.97147423 5 34 C6.29925029 38.27988329 6.18061955 40.40796924 4.875 44.6875 C1.80190403 50.11663621 -2.14254553 52.64069452 -7.984375 54.46875 C-14.3856927 55.59644327 -25.13541295 56.93229353 -31 54 C-31 50.37 -31 46.74 -31 43 C-30.01 43 -29.02 43 -28 43 C-27.79375 43.94875 -27.5875 44.8975 -27.375 45.875 C-26.30619803 49.17459443 -26.30619803 49.17459443 -23.4375 50.375 C-17.53882173 51.44748696 -12.98671587 52.04754109 -7.5625 49.1875 C-4.854441 47.07706695 -4.854441 47.07706695 -3 44 C-2.88709051 39.82656542 -2.88709051 39.82656542 -4 36 C-9.06168049 31.94914691 -14.56996054 30.30107674 -20.66015625 28.34375 C-25.38259487 26.44372791 -28.18412315 24.22381527 -31 20 C-31.74337889 15.51113514 -31.92581249 11.02658168 -30.0078125 6.828125 C-22.8730749 -2.60423997 -10.48705701 -1.74784284 0 0 Z " fill="#030A09" transform="translate(443,107)"/>
<path d="M0 0 C15.18 0 30.36 0 46 0 C46 3.3 46 6.6 46 10 C45.01 10 44.02 10 43 10 C42.505 7.525 42.505 7.525 42 5 C37.07337118 3.72861192 33.46314577 4 28 4 C27.67 19.18 27.34 34.36 27 50 C28.98 50 30.96 50 33 50 C33 50.99 33 51.98 33 53 C25.74 53 18.48 53 11 53 C11 52.01 11 51.02 11 50 C13.31 50 15.62 50 18 50 C18.33 34.49 18.66 18.98 19 3 C14.05 3.66 9.1 4.32 4 5 C3.67 6.65 3.34 8.3 3 10 C2.01 10 1.02 10 0 10 C0 6.7 0 3.4 0 0 Z " fill="#030A09" transform="translate(453,108)"/>
<path d="M0 0 C7.26 0 14.52 0 22 0 C22 0.99 22 1.98 22 3 C20.02 3 18.04 3 16 3 C16 18.84 16 34.68 16 51 C25.405 50.01 25.405 50.01 35 49 C35 47.02 35 45.04 35 43 C35.99 43 36.98 43 38 43 C38 46.63 38 50.26 38 54 C25.13 54 12.26 54 -1 54 C-1 53.01 -1 52.02 -1 51 C1.64 51 4.28 51 7 51 C7.02517599 46.71737012 7.04307876 42.43478221 7.05493164 38.15209961 C7.05988546 36.70254768 7.06665038 35.25300054 7.07543945 33.8034668 C7.13435597 23.81885063 6.80267972 13.95521938 6 4 C3.03 3.505 3.03 3.505 0 3 C0 2.01 0 1.02 0 0 Z " fill="#030A09" transform="translate(600,107)"/>
<path d="M0 0 C7.26 0 14.52 0 22 0 C22 0.99 22 1.98 22 3 C20.02 3 18.04 3 16 3 C16 18.84 16 34.68 16 51 C25.405 50.01 25.405 50.01 35 49 C35 47.02 35 45.04 35 43 C35.99 43 36.98 43 38 43 C38.495 48.445 38.495 48.445 39 54 C25.8 54 12.6 54 -1 54 C-1 53.01 -1 52.02 -1 51 C1.64 51 4.28 51 7 51 C7 35.16 7 19.32 7 3 C4.69 3 2.38 3 0 3 C0 2.01 0 1.02 0 0 Z " fill="#030A09" transform="translate(554,107)"/>
<path d="M0 0 C0.763125 0.268125 1.52625 0.53625 2.3125 0.8125 C5.33968136 0.90282576 5.33968136 0.90282576 8.375 0.25 C11.3125 -0.1875 11.3125 -0.1875 13.3125 0.8125 C13.5625 3.125 13.5625 3.125 13.3125 5.8125 C11.07511752 8.21561451 9.84909096 8.77591425 6.5625 9 C5.82 8.938125 5.0775 8.87625 4.3125 8.8125 C4.3125 10.4625 4.3125 12.1125 4.3125 13.8125 C6.2925 13.4825 8.2725 13.1525 10.3125 12.8125 C9.9825 13.8025 9.6525 14.7925 9.3125 15.8125 C5.9375 16.4375 5.9375 16.4375 2.3125 16.8125 C1.6525 16.1525 0.9925 15.4925 0.3125 14.8125 C0.3359375 12.6484375 0.3359375 12.6484375 0.6875 10.1875 C0.85378906 8.96160156 0.85378906 8.96160156 1.0234375 7.7109375 C1.16652344 6.77121094 1.16652344 6.77121094 1.3125 5.8125 C-0.0075 5.1525 -1.3275 4.4925 -2.6875 3.8125 C-4.98129749 7.25319624 -5.6875 8.53540301 -5.6875 12.8125 C-4.0375 12.8125 -2.3875 12.8125 -0.6875 12.8125 C-1.3475 14.1325 -2.0075 15.4525 -2.6875 16.8125 C-8.22596154 17.18173077 -8.22596154 17.18173077 -10.5625 15.3125 C-10.93375 14.8175 -11.305 14.3225 -11.6875 13.8125 C-12.285625 14.3075 -12.88375 14.8025 -13.5 15.3125 C-15.6875 16.8125 -15.6875 16.8125 -18.6875 16.8125 C-18.09645235 11.96590923 -16.70805843 8.20501833 -14.6875 3.8125 C-19.01784194 7.66169283 -21.3435756 11.53539646 -23.6875 16.8125 C-24.6775 16.8125 -25.6675 16.8125 -26.6875 16.8125 C-26.18553707 13.96804341 -25.54397186 11.41381072 -24.5625 8.6875 C-23.37565621 5.78345304 -23.37565621 5.78345304 -24.6875 2.8125 C-24.3575 2.1525 -24.0275 1.4925 -23.6875 0.8125 C-22.3675 0.8125 -21.0475 0.8125 -19.6875 0.8125 C-19.3575 1.4725 -19.0275 2.1325 -18.6875 2.8125 C-18.0275 2.1525 -17.3675 1.4925 -16.6875 0.8125 C-13.5625 0.6875 -13.5625 0.6875 -10.6875 0.8125 C-11.22475895 4.18955625 -11.79814623 7.509186 -12.6875 10.8125 C-12.0275 10.4825 -11.3675 10.1525 -10.6875 9.8125 C-10.44 9.07 -10.1925 8.3275 -9.9375 7.5625 C-8.01904375 3.34189625 -5.00806411 -0.34939982 0 0 Z M7.3125 2.8125 C6.6525 4.1325 5.9925 5.4525 5.3125 6.8125 C7.29741642 6.54573796 7.29741642 6.54573796 9.3125 5.8125 C9.6425 4.8225 9.9725 3.8325 10.3125 2.8125 C9.3225 2.8125 8.3325 2.8125 7.3125 2.8125 Z " fill="#030A09" transform="translate(302.6875,181.1875)"/>
<path d="M0 0 C0 0.66 0 1.32 0 2 C-1.97321053 3.3726682 -3.97543152 4.70427617 -6 6 C-6.66 6.66 -7.32 7.32 -8 8 C-7.175 8.350625 -6.35 8.70125 -5.5 9.0625 C-3 11 -3 11 -2.4375 14.3125 C-3.09610986 18.63005356 -4.11293941 20.73306302 -7 24 C-10 25.5625 -10 25.5625 -13 26 C-15.375 25.1875 -15.375 25.1875 -17 23 C-17.96983287 17.42073675 -17.25780446 12.6830939 -14 8 C-6.19875776 0 -6.19875776 0 0 0 Z M-10 11 C-12.82783576 14.19668391 -13.63139654 16.76106018 -14 21 C-13.67 21.66 -13.34 22.32 -13 23 C-12.01 23 -11.02 23 -10 23 C-7.56150591 18.86275353 -7.56150591 18.86275353 -7.1875 14.1875 C-7.78190093 11.82457249 -7.78190093 11.82457249 -10 11 Z " fill="#030A09" transform="translate(365,172)"/>
<path d="M0 0 C-0.18699463 0.54938232 -0.37398926 1.09876465 -0.56665039 1.66479492 C-1.41102889 4.16836793 -2.23687797 6.67768227 -3.0625 9.1875 C-3.35705078 10.05181641 -3.65160156 10.91613281 -3.95507812 11.80664062 C-4.22900391 12.64775391 -4.50292969 13.48886719 -4.78515625 14.35546875 C-5.04176025 15.12528076 -5.29836426 15.89509277 -5.56274414 16.68823242 C-6.07533477 19.39829421 -5.69046924 21.3508109 -5 24 C-8.3 24 -11.6 24 -15 24 C-14.67 23.34 -14.34 22.68 -14 22 C-13.34 22 -12.68 22 -12 22 C-9.85671642 15.70695459 -7.87724961 9.37732315 -6 3 C-6.66 2.34 -7.32 1.68 -8 1 C-5.07175348 0.02391783 -3.04386724 -0.08226668 0 0 Z " fill="#030A09" transform="translate(335,173)"/>
<path d="M0 0 C-0.41069303 6.84488389 -2.60655908 12.61743166 -5.13671875 18.92578125 C-5.42160156 19.94027344 -5.70648438 20.95476562 -6 22 C-5.34 22.99 -4.68 23.98 -4 25 C-7.3 25 -10.6 25 -14 25 C-13.01 24.01 -12.02 23.02 -11 22 C-10.02255153 19.51682889 -9.16412321 17.10279478 -8.375 14.5625 C-8.1584375 13.89412109 -7.941875 13.22574219 -7.71875 12.53710938 C-6.70568443 9.38222308 -5.74346789 6.22995494 -5 3 C-5.66 2.67 -6.32 2.34 -7 2 C-1.125 0 -1.125 0 0 0 Z " fill="#030A09" transform="translate(375,172)"/>
<path d="M0 0 C3.96 0 7.92 0 12 0 C9.90248469 5.24378827 7.35892933 9.92330609 4.5625 14.8125 C4.07201172 15.69615234 3.58152344 16.57980469 3.07617188 17.49023438 C2.35977539 18.74223633 2.35977539 18.74223633 1.62890625 20.01953125 C1.19650635 20.78370361 0.76410645 21.54787598 0.31860352 22.33520508 C-0.11653564 22.8845874 -0.5516748 23.43396973 -1 24 C-1.99 24 -2.98 24 -4 24 C-2.53171057 18.82064939 -0.18508737 14.65626588 2.625 10.125 C3.04523438 9.43664062 3.46546875 8.74828125 3.8984375 8.0390625 C4.92692472 6.35608342 5.962721 4.67757468 7 3 C2.545 4.485 2.545 4.485 -2 6 C-1.34 4.02 -0.68 2.04 0 0 Z " fill="#030A09" transform="translate(339,173)"/>
<path d="M0 0 C8.58 0 17.16 0 26 0 C26 1.32 26 2.64 26 4 C17.42 4 8.84 4 0 4 C0 2.68 0 1.36 0 0 Z " fill="#030A09" transform="translate(251,132)"/>
<path d="M0 0 C1.4540625 0.0309375 1.4540625 0.0309375 2.9375 0.0625 C2.9375 1.0525 2.9375 2.0425 2.9375 3.0625 C1.6175 3.0625 0.2975 3.0625 -1.0625 3.0625 C-0.7325 3.784375 -0.4025 4.50625 -0.0625 5.25 C0.96992213 8.15368724 1.33830901 10.01635151 0.9375 13.0625 C-0.25 14.875 -0.25 14.875 -2.0625 16.0625 C-4.75 16.25 -4.75 16.25 -7.0625 16.0625 C-7.3925 15.0725 -7.7225 14.0825 -8.0625 13.0625 C-6.7425 13.0625 -5.4225 13.0625 -4.0625 13.0625 C-3.7325 12.4025 -3.4025 11.7425 -3.0625 11.0625 C-3.7225 10.0725 -4.3825 9.0825 -5.0625 8.0625 C-4.37515421 0.08928886 -4.37515421 0.08928886 0 0 Z " fill="#030A09" transform="translate(265.0625,181.9375)"/>
<path d="M0 0 C1.32 0 2.64 0 4 0 C3.835 1.093125 3.67 2.18625 3.5 3.3125 C2.98229607 7.13056652 2.78369726 9.35109177 4 13 C2.25 14.5625 2.25 14.5625 0 16 C-2.140625 15.58984375 -2.140625 15.58984375 -4 15 C-3.52269162 13.5410574 -3.04308958 12.08286504 -2.5625 10.625 C-2.29566406 9.81289062 -2.02882813 9.00078125 -1.75390625 8.1640625 C-1 6 -1 6 0 4 C-0.66 4 -1.32 4 -2 4 C-1.34 2.68 -0.68 1.36 0 0 Z " fill="#030A09" transform="translate(271,182)"/>
<path d="M0 0 C0.99 0 1.98 0 3 0 C2.67 1.32 2.34 2.64 2 4 C1.01 3.67 0.02 3.34 -1 3 C-0.67 2.01 -0.34 1.02 0 0 Z " fill="#030A09" transform="translate(274,174)"/>
</svg>
