<?xml version="1.0" encoding="UTF-8"?>
<svg version="1.1" xmlns="http://www.w3.org/2000/svg" width="2083" height="426">
<path d="M0 0 C49.26691962 -0.0687228 98.53383438 -0.12155756 147.80079254 -0.15319599 C153.6221593 -0.15694794 159.44352596 -0.16083092 165.26489258 -0.16479492 C167.00322738 -0.16597532 167.00322738 -0.16597532 168.77668006 -0.16717956 C187.52137014 -0.18022014 206.26603251 -0.20386654 225.01070618 -0.23145839 C244.25602773 -0.25955012 263.50133481 -0.27618422 282.74667603 -0.28226548 C294.61433369 -0.28637411 306.48191302 -0.29933335 318.34954656 -0.3237494 C326.49654813 -0.33965312 334.64350942 -0.34438989 342.79052537 -0.34050413 C347.48522781 -0.33858979 352.17979373 -0.34144645 356.87447166 -0.35761642 C361.18383453 -0.37234982 365.49297068 -0.37286645 369.80234457 -0.36269668 C371.35042067 -0.36144211 372.89851165 -0.36513304 374.446559 -0.37464955 C397.63847385 -0.50877522 421.34877542 4.15359061 438.66015625 20.671875 C439.43230469 21.44015625 440.20445312 22.2084375 441 23 C441.69996094 23.66515625 442.39992188 24.3303125 443.12109375 25.015625 C461.98333401 44.28231875 464.54423898 73.31690532 464.35327148 98.80517578 C464.2150628 109.39557526 463.53170845 119.68877012 461 130 C460.83371094 130.68223633 460.66742187 131.36447266 460.49609375 132.06738281 C453.34959014 160.05785527 435.79773318 183.5258057 411.2734375 198.65136719 C399.03183774 205.91324402 386.37564196 212.13052666 373 217 C373.99966797 217.41958984 373.99966797 217.41958984 375.01953125 217.84765625 C391.91109765 225.19489702 405.41208682 235.75453595 412.86572266 253.00341797 C421.22719943 274.73277298 417.89679525 296.98632227 414.97265625 319.515625 C414.66015731 321.99415577 414.34868859 324.47281662 414.03819275 326.95159912 C413.39118645 332.09572495 412.73582569 337.23868566 412.07348633 342.38085938 C411.22299969 348.98474683 410.38793759 355.59044317 409.55825138 362.19696426 C408.9178381 367.29128411 408.27255029 372.3849757 407.62542534 377.47844696 C407.31562358 379.9169266 407.00663743 382.35550999 406.69847298 384.79419708 C406.26974343 388.17622365 405.83518283 391.55744544 405.39868164 394.93847656 C405.27136658 395.94917206 405.14405151 396.95986755 405.01287842 398.00119019 C404.8937056 398.91460175 404.77453278 399.82801331 404.65174866 400.769104 C404.54942964 401.56683353 404.44711061 402.36456306 404.34169102 403.18646622 C404 405 404 405 403 406 C401.05105041 406.09664967 399.09854545 406.12187121 397.14720154 406.12025452 C395.87528961 406.12162918 394.60337769 406.12300385 393.29292297 406.12442017 C391.87033058 406.12088055 390.44773842 406.11724573 389.02514648 406.11352539 C387.53733319 406.11324353 386.04951976 406.11340124 384.56170654 406.1139679 C380.51023 406.1142559 376.4587828 406.10835867 372.40731311 406.10139394 C368.17788003 406.09516092 363.94844636 406.09455664 359.7190094 406.09336853 C351.70440278 406.09025506 343.68980973 406.08204146 335.67520911 406.07201904 C326.55323316 406.06085839 317.43125658 406.05534758 308.30927551 406.05032361 C289.5395093 406.03985886 270.76975574 406.02225912 252 406 C252.517895 399.33827844 253.09497413 392.7183621 254.03149414 386.10205078 C254.12917587 385.40411911 254.2268576 384.70618744 254.32749939 383.98710632 C254.53629259 382.49588612 254.74637802 381.00484633 254.95768929 379.51398087 C255.41125086 376.30248476 255.85302341 373.08939618 256.29571438 369.87638664 C257.11505229 363.9308732 257.93887024 357.9860695 258.7824707 352.04394531 C262.17774587 329.23464897 262.17774587 329.23464897 263.49609375 306.2421875 C263.50576927 305.01328293 263.50576927 305.01328293 263.51564026 303.759552 C263.292424 293.25152705 259.73112558 283.84377143 252.375 276.3125 C244.02798338 270.02045955 234.11420848 267.74058472 224 266 C223.00794052 265.82541763 222.01588104 265.65083527 220.99375916 265.47096252 C215.92576509 264.76036262 210.84815768 264.86885103 205.74047852 264.88647461 C204.04422915 264.88629381 204.04422915 264.88629381 202.31371212 264.88610935 C198.66875652 264.88685319 195.02385265 264.89445731 191.37890625 264.90234375 C189.12235539 264.90381481 186.8658042 264.90483451 184.60925293 264.90539551 C176.26033007 264.91062941 167.91141452 264.92459066 159.5625 264.9375 C140.896875 264.958125 122.23125 264.97875 103 265 C91.615 334.795 91.615 334.795 80 406 C33.8 406 -12.4 406 -60 406 C-59.38046421 397.32649898 -58.70360205 388.95524324 -57.39292908 380.40657043 C-57.23185451 379.32670937 -57.07077994 378.2468483 -56.90482432 377.13426417 C-56.36994776 373.55723027 -55.82744816 369.9813971 -55.28491211 366.40551758 C-54.89647352 363.81854592 -54.50851174 361.23150262 -54.12098694 358.64439392 C-53.28586273 353.0741982 -52.44681885 347.50460447 -51.60508537 341.93540382 C-50.37053937 333.76707927 -49.14223257 325.59782533 -47.915294 317.42835506 C-45.90075991 304.01581392 -43.88147783 290.60399213 -41.85913086 277.19262695 C-39.93603523 264.43937625 -38.01475407 251.68585496 -36.09643555 238.93188477 C-35.98015192 238.15877382 -35.86386829 237.38566288 -35.74406092 236.58912434 C-35.04175163 231.91968851 -34.33952698 227.25023996 -33.63732788 222.58078757 C-32.58837257 215.60559002 -31.53927408 208.63041401 -30.49014282 201.65524292 C-30.31786065 200.50979509 -30.31786065 200.50979509 -30.14209802 199.34120689 C-28.52868062 188.61433295 -26.91407856 177.88763789 -25.29856731 167.16107909 C-20.88270177 137.84049071 -16.47378219 108.51890933 -12.09423828 79.19287109 C-11.90311167 77.91326944 -11.71198507 76.63366779 -11.51506674 75.31529033 C-9.72560223 63.33414266 -7.93733077 51.35281895 -6.1530652 39.37089586 C-5.52414627 35.14883062 -4.89430845 30.92690279 -4.26427341 26.70500398 C-3.97619032 24.77284132 -3.68856057 22.84061101 -3.40142179 20.90830779 C-3.01343537 18.29736352 -2.6239653 15.68664467 -2.23414612 13.07597351 C-2.12253787 12.32212319 -2.01092961 11.56827286 -1.89593929 10.79157859 C-1.353817 7.17146515 -0.73261875 3.5858883 0 0 Z M129 93 C127.62749809 97.59797504 126.52484768 102.12085953 125.67138672 106.84985352 C125.55405182 107.49472717 125.43671692 108.13960083 125.31582642 108.80401611 C124.9334245 110.91166551 124.55629981 113.02021522 124.1796875 115.12890625 C123.91366702 116.6067139 123.64747975 118.08449153 123.38113403 119.5622406 C122.82569952 122.64905231 122.27302225 125.73634239 121.72216797 128.82397461 C121.01759304 132.77134595 120.30499819 136.71722134 119.59019279 140.6627512 C119.03920811 143.71021421 118.49306669 146.75853039 117.94830704 149.80711174 C117.68758814 151.26218644 117.42524713 152.71697151 117.16122055 154.17144966 C116.79241371 156.20662174 116.43030617 158.24288019 116.06982422 160.27954102 C115.86267792 161.43535172 115.65553162 162.59116241 115.44210815 163.78199768 C115.01350924 166.90166942 114.91851358 169.8558181 115 173 C131.98612121 173.07028641 148.97219662 173.12308387 165.95843029 173.15543652 C173.84660409 173.17086209 181.73468718 173.19186847 189.62280273 173.22631836 C196.50336898 173.25635347 203.38386949 173.27560627 210.26449949 173.28226548 C213.902965 173.28615402 217.54124256 173.29520101 221.17964745 173.31719017 C225.2555082 173.34162009 229.33104855 173.34196102 233.40698242 173.34057617 C234.59454132 173.351362 235.78210022 173.36214783 237.00564575 173.3732605 C253.43676066 173.31321667 267.80843588 168.85481747 279.80859375 157.35546875 C287.83890124 148.72396177 291.98222902 138.83547093 292 127 C291.18922178 116.71048733 287.57039999 107.5134321 279.875 100.46484375 C270.19703715 92.90393527 258.65223134 92.70150975 246.83935547 92.77294922 C245.56017746 92.77265717 244.28099945 92.77236511 242.96305847 92.77206421 C239.48643118 92.77149488 236.00994441 92.78318035 232.53334951 92.79721212 C228.88854292 92.80979027 225.24373242 92.81089553 221.59890747 92.81326294 C214.71080409 92.81945703 207.82276488 92.83583954 200.93468964 92.85596192 C193.08697403 92.87838572 185.23925521 92.88933058 177.39151549 92.89935279 C161.26097289 92.92020782 145.13049466 92.95534312 129 93 Z " fill="#000000" transform="translate(1449,0)"/>
<path d="M0 0 C59.73 0 119.46 0 181 0 C201.78298812 81.97734203 201.78298812 81.97734203 208.10624933 107.26495457 C209.11127528 111.28308921 210.11762332 115.30089285 211.12373352 119.3187561 C213.27875369 127.92574949 215.43220664 136.5331344 217.58520555 145.14063358 C218.93619897 150.54178002 220.28752575 155.94284303 221.63889694 161.34389496 C225.40805622 176.40844848 229.17680697 191.47310406 232.94393349 206.53816605 C233.18061305 207.48466473 233.41729261 208.4311634 233.66114428 209.40634386 C233.89819916 210.35434511 234.13525404 211.30234635 234.3794924 212.27907491 C234.8594395 214.19841992 235.33938735 216.11776474 235.81933594 218.03710938 C236.17639894 219.46502922 236.17639894 219.46502922 236.54067533 220.92179593 C240.44598183 236.53902569 244.35449944 252.15545 248.26428802 267.7715582 C252.31294264 283.94250788 256.35896982 300.11411307 260.40233076 316.28638721 C262.65946046 325.31399144 264.91771673 334.34131046 267.17891312 343.36789703 C269.08969864 350.99570557 270.99810448 358.62410434 272.90333022 366.25330356 C273.87379488 370.13908058 274.84541523 374.02455918 275.82008934 377.90928268 C276.71059892 381.45866803 277.59788392 385.0088428 278.48254363 388.55969056 C278.95651463 390.45848236 279.43398056 392.35640068 279.91154921 394.25429082 C280.18957046 395.37296568 280.46759172 396.49164053 280.75403786 397.64421463 C280.99641485 398.61312551 281.23879184 399.58203639 281.48851359 400.5803082 C282 403 282 403 282 406 C231.18 406 180.36 406 128 406 C125.53894764 396.15579054 123.17497859 386.43966935 121.25 376.5 C121.02957031 375.37980469 120.80914063 374.25960938 120.58203125 373.10546875 C120.05103956 370.4043371 119.52370044 367.70255291 119 365 C96.42524957 364.56909051 73.85244271 364.27687248 51.27387047 364.1476593 C40.78865904 364.08445505 30.30751721 363.97667989 19.82421875 363.76220703 C10.68160116 363.57527754 1.54260252 363.47377387 -7.60199392 363.47284317 C-12.44175316 363.46941828 -17.27279781 363.42461632 -22.11049271 363.27728271 C-41.42405153 361.90513292 -41.42405153 361.90513292 -58.8927536 368.22149658 C-64.46318985 374.69606629 -67.00598951 382.09937312 -70 390 C-72.97 395.28 -75.94 400.56 -79 406 C-129.16 406 -179.32 406 -231 406 C-229.49435603 402.23589007 -227.96798631 398.96459936 -226.015625 395.44921875 C-225.41741943 394.37075684 -224.81921387 393.29229492 -224.20288086 392.18115234 C-223.55215348 391.0164714 -222.90118697 389.85192404 -222.25 388.6875 C-221.91775421 388.09108704 -221.58550842 387.49467407 -221.24319458 386.88018799 C-216.01251873 377.49192357 -210.64806942 368.18787507 -205.20214844 358.92260742 C-201.04262769 351.83166502 -196.99722806 344.68353735 -193 337.5 C-187.86374835 328.27065229 -182.59787376 319.12762875 -177.25 310.01953125 C-173.07756041 302.8947181 -169.01504756 295.71453859 -165 288.5 C-159.86368611 279.27068598 -154.59787465 270.12763027 -149.25 261.01953125 C-145.07756041 253.8947181 -141.01504756 246.71453859 -137 239.5 C-131.86368611 230.27068598 -126.59787465 221.12763027 -121.25 212.01953125 C-117.07756041 204.8947181 -113.01504756 197.71453859 -109 190.5 C-103.86368611 181.27068598 -98.59787465 172.12763027 -93.25 163.01953125 C-89.07756041 155.8947181 -85.01504756 148.71453859 -81 141.5 C-75.86368611 132.27068598 -70.59787465 123.12763027 -65.25 114.01953125 C-61.07756041 106.8947181 -57.01504756 99.71453859 -53 92.5 C-47.86368611 83.27068598 -42.59787465 74.12763027 -37.25 65.01953125 C-33.07756015 57.89471767 -29.01505539 50.71453512 -25 43.5 C-18.6603074 32.10861678 -12.1286724 20.83651634 -5.51708984 9.60107422 C-3.6574305 6.41265924 -1.83130541 3.20478446 0 0 Z M61 141 C60.6282666 141.74870361 60.2565332 142.49740723 59.87353516 143.26879883 C53.54935142 155.99414789 47.22359167 168.71058255 40.54931641 181.25708008 C37.17123459 187.6244247 33.95234079 194.06483692 30.74902344 200.52148438 C27.91104472 206.22406867 24.98557542 211.87342849 22 217.5 C18.42021653 224.25251549 14.92395572 231.04206213 11.5 237.875 C10.86771484 239.13280273 10.86771484 239.13280273 10.22265625 240.41601562 C9.82949219 241.20427734 9.43632813 241.99253906 9.03125 242.8046875 C8.68642578 243.49546387 8.34160156 244.18624023 7.98632812 244.89794922 C6.89543064 247.22285698 5.95377677 249.61555807 5 252 C33.05 252 61.1 252 90 252 C86.98979405 238.25877539 86.98979405 238.25877539 83.66577148 224.60375977 C83.36488617 223.4266317 83.36488617 223.4266317 83.05792236 222.22572327 C82.41506082 219.71357022 81.76818391 217.20247304 81.12109375 214.69140625 C80.6629447 212.90508259 80.20502834 211.11869925 79.74732971 209.33226013 C78.79692092 205.62510891 77.84467558 201.91843668 76.89086914 198.2121582 C75.67577654 193.49051241 74.46395254 188.76803577 73.25332546 184.04524326 C72.08537072 179.48950933 70.91579062 174.93419314 69.74609375 170.37890625 C69.41837888 169.10181384 69.41837888 169.10181384 69.0840435 167.79892159 C66.78603574 158.84818914 64.47564671 149.90369857 62 141 C61.67 141 61.34 141 61 141 Z " fill="#000000" transform="translate(879,0)"/>
<path d="M0 0 C128.04 0 256.08 0 388 0 C388 9.00015373 388 9.00015373 387.39930725 12.96601868 C387.26612595 13.86458084 387.13294464 14.76314301 386.99572754 15.68893433 C386.84768677 16.64663727 386.699646 17.60434021 386.54711914 18.59106445 C386.3926683 19.62129227 386.23821747 20.65152008 386.0790863 21.71296692 C385.57018231 25.09729977 385.05283686 28.48028072 384.53515625 31.86328125 C384.17838901 34.2211403 383.82206722 36.57906678 383.46617126 38.9370575 C382.72075092 43.86753407 381.97140605 48.79739225 381.21899414 53.72680664 C380.25359561 60.05233441 379.29576046 66.37897778 378.34055424 72.70605183 C377.60585109 77.56956657 376.86831315 82.4326478 376.12978935 87.29558372 C375.77552472 89.62914934 375.42188146 91.96280937 375.06886482 94.2965641 C374.57605094 97.55009952 374.07970037 100.80307501 373.58227539 104.0559082 C373.43625885 105.0237323 373.29024231 105.9915564 373.13980103 106.9887085 C373.0037999 107.87317154 372.86779877 108.75763458 372.72767639 109.66889954 C372.61060868 110.43742406 372.49354097 111.20594858 372.37292576 111.99776173 C372 114 372 114 371 117 C289.82 117 208.64 117 125 117 C124.34 121.29 123.68 125.58 123 130 C121.02 138.58 119.04 147.16 117 156 C198.84 156 280.68 156 365 156 C364.3898453 163.93201112 363.74667404 171.60526201 362.52539062 179.42431641 C362.38054733 180.37724579 362.23570404 181.33017517 362.08647156 182.3119812 C361.61443971 185.4092499 361.13553212 188.50540818 360.65625 191.6015625 C360.32342416 193.77292658 359.99095127 195.94434478 359.65881348 198.11581421 C358.96581983 202.63968992 358.2695834 207.1630501 357.57080078 211.68603516 C356.67454491 217.48801032 355.78496962 223.2909854 354.89759064 229.09432411 C354.21339267 233.56578522 353.52648679 238.03682682 352.83866882 242.50773239 C352.50947855 244.64870484 352.18095371 246.78977971 351.85310364 248.93095779 C351.39624742 251.91092948 350.93593735 254.89034667 350.47460938 257.86962891 C350.27196724 259.19737335 350.27196724 259.19737335 350.06523132 260.55194092 C349.93908951 261.36186493 349.81294769 262.17178894 349.6829834 263.0062561 C349.57458885 263.70929178 349.46619431 264.41232746 349.35451508 265.13666725 C349 267 349 267 348 270 C265.83 270 183.66 270 99 270 C98.67 273.96 98.34 277.92 98 282 C97.76035703 283.99389533 97.50151616 285.98584857 97.203125 287.97180176 C97.05174072 288.99221558 96.90035645 290.01262939 96.74438477 291.06396484 C96.58123779 292.13662598 96.41809082 293.20928711 96.25 294.31445312 C96.075896 295.48020874 95.90179199 296.64596436 95.72241211 297.8470459 C95.15208368 301.65902968 94.57617003 305.47014516 94 309.28125 C93.59957894 311.94484413 93.20021978 314.60859724 92.80078125 317.27233887 C91.96621089 322.83365613 91.12863222 328.39451352 90.2890625 333.95507812 C89.31929883 340.37808643 88.35367008 346.8017056 87.3903656 353.2256856 C86.46055532 359.42604854 85.52851051 365.62607326 84.59521484 371.82591248 C84.19923013 374.45732065 83.80372031 377.08880034 83.40869141 379.72035217 C82.85776363 383.38743603 82.30426402 387.05412225 81.75 390.72070312 C81.50527954 392.3539856 81.50527954 392.3539856 81.25561523 394.02026367 C81.10423096 395.0181189 80.95284668 396.01597412 80.796875 397.04406738 C80.66635742 397.90971565 80.53583984 398.77536392 80.40136719 399.66724396 C80.03476904 401.7979215 79.52435849 403.90256605 79 406 C32.8 406 -13.4 406 -61 406 C-59.25043698 392.58668353 -57.49699297 379.19945825 -55.48202515 365.82806396 C-55.24485171 364.24295505 -55.00786865 362.65781765 -54.77105486 361.07265496 C-54.13182205 356.79752024 -53.48992525 352.52278951 -52.84751177 348.24813175 C-52.15065599 343.60790934 -51.45635676 338.96730425 -50.76170349 334.32675171 C-49.40607053 325.27339969 -48.04808153 316.22040265 -46.68918847 307.16753945 C-45.58535608 299.81363033 -44.48235515 292.45959695 -43.3799324 285.10547638 C-43.14368181 283.52949413 -43.14368181 283.52949413 -42.90265847 281.92167385 C-42.58263849 279.78686652 -42.26261983 277.652059 -41.94260247 275.51725128 C-38.95219751 255.56925656 -35.95903579 235.62167623 -32.96496101 215.67423204 C-30.39551627 198.55530838 -27.82868304 181.43599475 -25.26367188 164.31640625 C-22.28017792 144.40374911 -19.29492187 124.49135737 -16.30695593 104.57937074 C-15.9887797 102.4589837 -15.6706064 100.33859623 -15.35243607 98.21820831 C-15.19590746 97.17505326 -15.03937885 96.13189822 -14.87810694 95.05713241 C-13.77444554 87.70112183 -12.67206962 80.34491927 -11.57020187 72.98863983 C-10.22996913 64.04117466 -8.88785579 55.09399408 -7.54328369 46.14717993 C-6.85724186 41.58189971 -6.17207661 37.0164924 -5.4892292 32.45073318 C-4.86492745 28.27659082 -4.23816901 24.10282523 -3.60940166 19.92935327 C-3.38175128 18.41533364 -3.15501942 16.90117558 -2.92927186 15.38687107 C-2.62360204 13.33736642 -2.31466089 11.28838148 -2.00485802 9.23949814 C-1.83371148 8.09875517 -1.66256495 6.95801219 -1.48623216 5.78270125 C-1 3 -1 3 0 0 Z " fill="#000000" transform="translate(61,0)"/>
<path d="M0 0 C47.19 0 94.38 0 143 0 C142.39361312 6.67025568 141.76573024 13.16452973 140.70095825 19.74824524 C140.57310782 20.5576332 140.44525739 21.36702115 140.31353271 22.20093602 C139.88971008 24.87841299 139.46073839 27.55503758 139.03173828 30.23168945 C138.72400502 32.16892082 138.41659523 34.1062036 138.10948181 36.04353333 C137.27528582 41.29999884 136.43661999 46.55574254 135.59719324 51.8113749 C134.70676822 57.39157512 133.82063754 62.97245723 132.93405151 68.55326843 C131.24300595 79.19392281 129.54835797 89.83400004 127.85231578 100.47385901 C125.4120209 115.78359409 122.97698101 131.09416492 120.54185104 146.40472221 C120.35989032 147.54876868 120.1779296 148.69281515 119.99045491 149.8715297 C119.62454447 152.17213884 119.25864234 154.47274929 118.89274859 156.77336109 C117.80633595 163.60386939 116.71916467 170.43425645 115.63141227 177.26455152 C112.23603385 198.58621674 108.84829919 219.90894394 105.51074219 241.23974609 C105.24501269 242.93705724 104.9792828 244.63436833 104.71355247 246.33167934 C103.62473365 253.28896788 102.53755561 260.246499 101.4573288 267.20512724 C101.13738827 269.26403634 100.81636593 271.32277329 100.49487686 273.38144112 C100.11224136 275.8326582 99.73157933 278.28418453 99.3533287 280.73608208 C99.18773579 281.79421671 99.02214287 282.85235134 98.85153198 283.94255066 C98.63922093 285.31066029 98.63922093 285.31066029 98.42262077 286.7064085 C98 289 98 289 97 292 C132.31 292 167.62 292 204 292 C202.48664505 295.78338738 200.950629 299.05726572 198.98046875 302.5859375 C198.07530518 304.21160645 198.07530518 304.21160645 197.15185547 305.87011719 C196.49718415 307.03847525 195.84239608 308.20676791 195.1875 309.375 C194.50909071 310.59006509 193.83087056 311.80523579 193.15283203 313.02050781 C187.33696115 323.43502226 181.47158746 333.82164488 175.58837891 344.19824219 C172.91024858 348.92222368 170.23596561 353.64837742 167.5625 358.375 C167.03301758 359.31021484 166.50353516 360.24542969 165.95800781 361.20898438 C163.05911225 366.33497351 160.17778593 371.47015242 157.31640625 376.6171875 C156.70015381 377.72400879 156.08390137 378.83083008 155.44897461 379.97119141 C154.27372264 382.08384485 153.10114952 384.19799185 151.93188477 386.31396484 C151.38975342 387.2880127 150.84762207 388.26206055 150.2890625 389.265625 C149.82193848 390.10899414 149.35481445 390.95236328 148.87353516 391.82128906 C148.25526855 392.87026367 147.63700195 393.91923828 147 395 C146.65652684 395.88201364 146.31305368 396.76402727 145.95917225 397.67276859 C144.32689702 401.16168659 142.8639745 403.39906715 140 406 C133.6416149 407.66232152 127.37828354 407.39226386 120.84594727 407.2487793 C118.87449824 407.24567496 116.90303649 407.24742114 114.93159485 407.25364685 C109.58808678 407.25680058 104.24729995 407.19217867 98.90442395 407.11533332 C93.31784734 407.04652311 87.73120684 407.04010386 82.14427185 407.02705383 C71.56869598 406.99287717 60.99437236 406.90262881 50.4193477 406.79220945 C38.37847927 406.6692163 26.33755072 406.60876721 14.29621041 406.55355966 C-10.46988708 406.4386105 -35.23487335 406.24515573 -60 406 C-59.43613974 395.78601334 -58.22097744 385.76548851 -56.68457031 375.6580658 C-56.44472518 374.05331688 -56.20535172 372.44849742 -55.96640396 370.84361464 C-55.31410945 366.47175872 -54.65518798 362.10092455 -53.99510002 357.73023951 C-53.28225924 353.00223229 -52.57566906 348.27329041 -51.86828613 343.54446411 C-50.48417149 334.2983204 -49.09438709 325.05303755 -47.70270538 315.80803012 C-46.08196947 305.03976673 -44.46713044 294.27062155 -42.85258341 283.50142879 C-39.97243084 264.29172783 -37.08731108 245.0827763 -34.19921875 225.87426758 C-31.39658904 207.23411459 -28.59691229 188.59352154 -25.80078125 169.95239258 C-25.62836363 168.80293043 -25.45594602 167.65346829 -25.27830362 166.46917396 C-24.5852692 161.84885416 -23.89224076 157.22853345 -23.19922376 152.60821104 C-20.37273518 133.76465126 -17.54393051 114.92143908 -14.71476746 96.07828069 C-14.0698729 91.78302927 -13.42507181 87.48776384 -12.78034973 83.19248652 C-11.08685881 71.91034126 -9.39262567 60.62830834 -7.69614029 49.34661292 C-6.99467442 44.68179616 -6.29357751 40.0169248 -5.59352112 35.35189629 C-4.95309143 31.08434096 -4.31152887 26.81695756 -3.66904402 22.54971118 C-3.43646871 21.00368096 -3.20430378 19.45758894 -2.97258425 17.91143023 C-2.65819965 15.81413447 -2.34232246 13.71706879 -2.02606201 11.6200552 C-1.76315935 9.87086541 -1.76315935 9.87086541 -1.49494553 8.08633846 C-1.06090699 5.37979851 -0.53757819 2.68789093 0 0 Z " fill="#000000" transform="translate(480,0)"/>
<path d="M0 0 C46.2 0 92.4 0 140 0 C134.25238298 39.08379573 134.25238298 39.08379573 131.47680664 56.65966797 C131.15654039 58.69619435 130.83642522 60.7327445 130.51644421 62.76931572 C129.66123044 68.20979227 128.80396632 73.64994382 127.94629574 79.09003353 C127.02547918 84.93321387 126.10670581 90.77671553 125.18768311 96.62017822 C123.42161954 107.84748107 121.65383654 119.07451244 119.88537538 130.30143785 C117.64784073 144.50658907 115.41214676 158.71202988 113.17651367 172.91748047 C112.36159359 178.09549046 111.54666572 183.27349922 110.73173523 188.45150757 C110.53057447 189.72968546 110.3294137 191.00786335 110.12215716 192.32477391 C108.90601883 200.05198373 107.68965446 207.77915794 106.47311956 215.50630534 C101.8340774 244.97272306 97.20175621 274.44017537 92.58508492 303.91010666 C91.78293905 309.03042113 90.98038057 314.15067087 90.17771912 319.27090454 C89.7960356 321.70580082 89.41435586 324.14069769 89.03267682 326.57559466 C88.78588776 328.14996304 88.53909432 329.72433074 88.29229629 331.29869771 C86.88714926 340.26268154 85.48352081 349.22690021 84.08231604 358.19150114 C83.13158777 364.27313584 82.17831656 370.35436926 81.22403717 376.43544769 C80.84320745 378.86521824 80.46328198 381.29513071 80.08434296 383.72519684 C79.57915048 386.9644669 79.07087245 390.20323745 78.56176758 393.44189453 C78.41611894 394.380986 78.27047029 395.32007748 78.12040806 396.28762627 C77.98603305 397.13824701 77.85165804 397.98886776 77.71321106 398.86526489 C77.59865476 399.5974782 77.48409845 400.32969151 77.36607075 401.08409309 C77 403 77 403 76 406 C29.8 406 -16.4 406 -64 406 C-60.55409547 380.73003343 -60.55409547 380.73003343 -59.1658783 371.99189758 C-59.00450601 370.96393182 -58.84313372 369.93596607 -58.67687136 368.87684983 C-58.14990467 365.52343729 -57.61977803 362.17053307 -57.08959961 358.81762695 C-56.70437927 356.37049379 -56.31936045 353.9233289 -55.93452454 351.47613525 C-55.1092629 346.23109068 -54.2826427 340.98626309 -53.45475578 335.74163246 C-52.23810348 328.03408625 -51.02417623 320.32611256 -49.81083114 312.61804511 C-47.81498475 299.93934581 -45.81720809 287.26095147 -43.81811523 274.58276367 C-41.92382718 262.56920727 -40.03009759 250.55556319 -38.13745117 238.54174805 C-37.96547895 237.45013413 -37.96547895 237.45013413 -37.79003255 236.3364674 C-36.5197564 228.27311267 -35.24966156 220.20972938 -33.97966957 212.14632988 C-33.80832073 211.0584102 -33.80832073 211.0584102 -33.6335103 209.94851234 C-33.17261211 207.02219236 -32.71171423 204.09587233 -32.25083525 201.16954933 C-30.87539785 192.43632024 -29.49947267 183.70316828 -28.12279991 174.97013383 C-23.49597343 145.61920667 -18.87881916 116.26685071 -14.30291402 86.90793622 C-13.65775678 82.76869814 -13.01211257 78.62953611 -12.36639118 74.49038601 C-11.94838722 71.81066648 -11.53040972 69.13094283 -11.11244202 66.45121765 C-10.90929455 65.14878536 -10.70614709 63.84635306 -10.49684364 62.50445312 C-9.30694744 54.87319708 -8.12025058 47.24145172 -6.93593454 39.60932779 C-6.21553895 34.97094494 -5.49250191 30.33297666 -4.7687633 25.69511437 C-4.43521931 23.55367118 -4.10286897 21.41204169 -3.7717793 19.27021766 C-3.32345919 16.370638 -2.87111468 13.47171466 -2.41773987 10.57292175 C-2.28743077 9.72328883 -2.15712167 8.87365591 -2.02286381 7.99827653 C-1.11405357 2.22810714 -1.11405357 2.22810714 0 0 Z " fill="#000000" transform="translate(1247,0)"/>
<path d="M0 0 C0.33 0 0.66 0 1 0 C1.82444476 11.7278575 2.27675938 23.43595038 2.57250977 35.1875 C2.6216748 37.05550771 2.67109017 38.92350885 2.72073364 40.79150391 C2.853515 45.81619669 2.98268236 50.84097618 3.1110394 55.86578369 C3.24664017 61.15406051 3.38525368 66.44225852 3.52342224 71.73046875 C3.75487234 80.60671907 3.98399263 89.48302716 4.21166992 98.359375 C4.47395927 108.58414026 4.7397882 118.80880877 5.00755268 129.03343201 C5.26633096 138.91758279 5.52273491 148.80179379 5.77802849 158.68603516 C5.88614108 162.87062509 5.99503841 167.05519348 6.10458565 171.23974609 C6.23373899 176.17774734 6.36078546 181.11579866 6.48628616 186.05389404 C6.53233602 187.85326958 6.57906877 189.65262782 6.62658119 191.45196533 C6.69196575 193.93277515 6.75472471 196.41363943 6.81690979 198.89453125 C6.83568241 199.58407394 6.85445503 200.27361664 6.87379652 200.98405457 C7.06048429 208.66036742 7 216.31316594 7 224 C-27.65 224 -62.3 224 -98 224 C-97.1655299 219.82764948 -96.20169256 216.85289894 -94.5078125 213.0234375 C-93.97776611 211.81840576 -93.44771973 210.61337402 -92.90161133 209.37182617 C-92.30949282 208.03951288 -91.71728593 206.70723887 -91.125 205.375 C-90.50045323 203.96023734 -89.87636097 202.54527395 -89.25268555 201.13012695 C-87.8961495 198.05468944 -86.5364269 194.98068744 -85.17431641 191.90771484 C-82.94805089 186.88486611 -80.72946787 181.85864483 -78.51171875 176.83203125 C-74.90861449 168.66768391 -71.30061895 160.50550886 -67.69055176 152.34423828 C-63.68532224 143.28941872 -59.68365742 134.233026 -55.6824646 125.17642212 C-53.70513381 120.70087853 -51.72755407 116.22544494 -49.75 111.75 C-48.95833215 109.95833386 -48.16666548 108.16666719 -47.375 106.375 C-45.79166667 102.79166667 -44.20833333 99.20833333 -42.625 95.625 C-42.23319046 94.73827103 -41.84138092 93.85154205 -41.43769836 92.9379425 C-40.64537682 91.14479802 -39.85304893 89.35165634 -39.06071472 87.55851746 C-37.09151595 83.10198421 -35.12242447 78.64540362 -33.15356445 74.1887207 C-29.47249092 65.85660204 -25.79035936 57.52495571 -22.10458374 49.19491577 C-20.37986395 45.2967898 -18.65573113 41.39840433 -16.93164062 37.5 C-16.11634017 35.65693461 -15.300758 33.81399381 -14.48486328 31.97119141 C-13.34724738 29.40169122 -12.21044147 26.83183528 -11.07421875 24.26171875 C-10.72072357 23.46236908 -10.36722839 22.66301941 -10.00302124 21.83944702 C-7.31186433 15.73996139 -4.68927799 9.6133842 -2.10473633 3.46801758 C-1 1 -1 1 0 0 Z " fill="#000000" transform="translate(2022,29)"/>
<path d="M0 0 C31.68 0 63.36 0 96 0 C94.56386092 4.30841724 93.47293907 7.21065872 91.234375 10.95703125 C90.68136719 11.89160156 90.12835937 12.82617188 89.55859375 13.7890625 C88.66333984 15.28566406 88.66333984 15.28566406 87.75 16.8125 C82.72263435 25.31634624 77.79726527 33.86424302 73 42.5 C67.86734663 51.72457449 62.60421491 60.86242427 57.25878906 69.96508789 C52.99822419 77.23967421 48.85292428 84.57300494 44.75 91.9375 C42.5023535 95.95965357 40.2518324 99.98018871 38 104 C37.49355957 104.9065332 36.98711914 105.81306641 36.46533203 106.74707031 C35.093084 109.19263364 33.7058153 111.6288948 32.3125 114.0625 C31.71550293 115.13455688 31.71550293 115.13455688 31.10644531 116.22827148 C29.98828125 118.16015625 29.98828125 118.16015625 28 121 C27.01 121 26.02 121 25 121 C21.73543141 105.81524276 18.47553798 90.6294875 15.22121429 75.44253159 C13.71008153 68.3910591 12.19741811 61.33992147 10.68115234 54.28955078 C9.35964597 48.14475832 8.04101019 41.99935812 6.72582388 35.85320973 C6.0292862 32.59862988 5.33088369 29.34446841 4.62989807 26.0908432 C3.84778305 22.45947402 3.07074646 18.82705343 2.29492188 15.19433594 C2.06115341 14.11468063 1.82738495 13.03502533 1.58653259 11.9226532 C1.37617874 10.93269852 1.16582489 9.94274384 0.94909668 8.92279053 C0.76473808 8.06367947 0.58037949 7.20456841 0.39043427 6.31942368 C0 4 0 4 0 0 Z " fill="#000000" transform="translate(1924,269)"/>
<path d="M0 0 C10.60726766 10.67967222 13.82809861 20.31936405 13.8515625 35.0546875 C13.88830078 36.25351562 13.92503906 37.45234375 13.96289062 38.6875 C14.02375437 51.15780545 9.23139081 60.1959555 0.71484375 69.11328125 C-8.5493441 77.48237849 -18.67483017 80.88328312 -30.9609375 80.8046875 C-32.48956421 80.79719482 -32.48956421 80.79719482 -34.04907227 80.78955078 C-41.7990546 80.61002407 -48.04447615 79.46984847 -54.7109375 75.3046875 C-55.80341797 74.63566406 -55.80341797 74.63566406 -56.91796875 73.953125 C-67.32388767 66.83014417 -73.8793073 56.94753516 -77.0234375 44.8046875 C-79.5657565 31.04194139 -76.55908927 17.85446188 -68.7109375 6.3046875 C-60.78331263 -3.5323868 -50.1872586 -9.00004828 -37.9609375 -11.4453125 C-23.89012505 -12.72701027 -10.77673639 -9.3023946 0 0 Z M-57.9609375 5.8671875 C-65.44671988 13.91364589 -69.63636031 24.29296659 -69.73828125 35.2421875 C-69.13799113 47.30955812 -64.44177293 57.23156091 -55.76171875 65.6328125 C-48.63598626 71.44198108 -39.18629342 74.85850587 -29.97265625 74.55078125 C-17.40261079 73.1830561 -8.58536059 68.33849536 -0.4375 58.74609375 C2.28978229 54.88964255 3.91429709 50.80180146 5.2890625 46.3046875 C5.57523438 45.38623047 5.57523438 45.38623047 5.8671875 44.44921875 C8.00045421 33.60511297 6.50754144 22.2251289 0.74609375 12.7734375 C-5.78549742 3.80557777 -14.31114683 -1.87734833 -25.18359375 -4.23046875 C-37.2810974 -5.89842884 -48.93673021 -2.36932807 -57.9609375 5.8671875 Z " fill="#000000" transform="translate(2069.7109375,345.6953125)"/>
<path d="M0 0 C5.15625 -0.061875 10.3125 -0.12375 15.625 -0.1875 C17.24100098 -0.21481201 18.85700195 -0.24212402 20.52197266 -0.27026367 C22.44855713 -0.28150269 22.44855713 -0.28150269 24.4140625 -0.29296875 C25.7232666 -0.3086792 27.0324707 -0.32438965 28.38134766 -0.34057617 C33.17197859 0.11030294 36.56660296 1.47104316 39.875 5 C41.93436316 10.4916351 41.88738981 16.39329243 40 21.9375 C36.41070642 25.638959 31.82957677 27.39014108 27 29 C27.67546875 30.00160156 28.3509375 31.00320313 29.046875 32.03515625 C29.9480422 33.3775199 30.84907679 34.71997258 31.75 36.0625 C32.1934375 36.71927734 32.636875 37.37605469 33.09375 38.05273438 C35.9226709 42.27531484 38.52808131 46.55863208 41 51 C37.81566848 51.64986357 35.16810128 51.800896 32 51 C28.08862386 47.30458942 25.72559654 42.49543678 23.3984375 37.69921875 C22.85445312 36.62285156 22.31046875 35.54648437 21.75 34.4375 C21.29109375 33.42558594 20.8321875 32.41367187 20.359375 31.37109375 C17.25672371 27.74554404 17.25672371 27.74554404 7 28 C7 35.59 7 43.18 7 51 C4.69 51 2.38 51 0 51 C0 34.17 0 17.34 0 0 Z M7 5 C7 10.61 7 16.22 7 22 C10.2296738 22.08111739 13.45730014 22.14055592 16.6875 22.1875 C17.59951172 22.21263672 18.51152344 22.23777344 19.45117188 22.26367188 C26.24115417 22.36587146 26.24115417 22.36587146 32 19 C33.66359081 15.67745889 33.66359081 15.67745889 34 12 C32.82154771 9.05386927 31.88422678 7.54653094 29.18066406 5.87548828 C26.69689554 4.87831028 24.90359452 4.77046674 22.234375 4.8046875 C20.90019531 4.81435547 20.90019531 4.81435547 19.5390625 4.82421875 C18.61867188 4.84097656 17.69828125 4.85773438 16.75 4.875 C15.34621094 4.88853516 15.34621094 4.88853516 13.9140625 4.90234375 C11.60926511 4.92586209 9.30459967 4.96173174 7 5 Z " fill="#000000" transform="translate(2021,355)"/>
</svg>
